<?xml version="1.0" encoding="utf-8"?>
<!-- Generator: Adobe Illustrator 22.0.1, SVG Export Plug-In . SVG Version: 6.00 Build 0)  -->
<svg version="1.1" id="Layer_1" xmlns="http://www.w3.org/2000/svg" xmlns:xlink="http://www.w3.org/1999/xlink" x="0px" y="0px"
	 viewBox="0 0 41.7 9.5" style="enable-background:new 0 0 41.7 9.5;" xml:space="preserve">
<style type="text/css">
	.st0{fill:#FFFFFF;}
</style>
<path id="_" class="st0" d="M11.6,5.5L6.2,0.1l0,0C6,0,5.7,0,5.5,0.1L0.1,5.5l0,0c-0.2,0.2-0.2,0.5,0,0.6l1.2,1.2
	c0.1,0.1,0.2,0.1,0.3,0.1s0.2,0,0.3-0.1l3.8-3.9l3.8,3.9C9.8,7.5,9.9,7.5,10,7.5s0.2-0.1,0.3-0.1l1.2-1.2c0.1-0.1,0.1-0.2,0.1-0.3
	C11.7,5.7,11.6,5.6,11.6,5.5z"/>
</svg>
