<?xml version="1.0" encoding="utf-8"?>
<!-- Generator: Adobe Illustrator 22.0.1, SVG Export Plug-In . SVG Version: 6.00 Build 0)  -->
<svg version="1.1" id="Layer_1" xmlns="http://www.w3.org/2000/svg" xmlns:xlink="http://www.w3.org/1999/xlink" x="0px" y="0px"
	 viewBox="0 0 41.7 7.5" style="enable-background:new 0 0 41.7 7.5;" xml:space="preserve">
<style type="text/css">
	.st0{fill:#1ACBB0;}
</style>
<path id="_" class="st0" d="M11.7,1.7c0-0.1-0.1-0.2-0.1-0.3l-1.2-1.2C10.3,0.1,10.1,0,10,0c-0.1,0-0.2,0-0.3,0.1L5.8,4L2,0.1
	C1.9,0.1,1.8,0,1.7,0C1.5,0,1.4,0.1,1.3,0.1L0.1,1.3c-0.2,0.2-0.2,0.5,0,0.6c0,0,0,0,0,0l5.4,5.4c0.2,0.2,0.5,0.2,0.7,0c0,0,0,0,0,0
	L11.6,2C11.6,1.9,11.7,1.8,11.7,1.7z"/>
</svg>
