<svg xmlns="http://www.w3.org/2000/svg" width="13.719" height="13.719" viewBox="0 0 13.719 13.719">
  <metadata><?xpacket begin="﻿" id="W5M0MpCehiHzreSzNTczkc9d"?>
<x:xmpmeta xmlns:x="adobe:ns:meta/" x:xmptk="Adobe XMP Core 5.6-c138 79.159824, 2016/09/14-01:09:01        ">
   <rdf:RDF xmlns:rdf="http://www.w3.org/1999/02/22-rdf-syntax-ns#">
      <rdf:Description rdf:about=""/>
   </rdf:RDF>
</x:xmpmeta>
                                                                                                    
                                                                                                    
                                                                                                    
                                                                                                    
                                                                                                    
                                                                                                    
                                                                                                    
                                                                                                    
                                                                                                    
                                                                                                    
                                                                                                    
                                                                                                    
                                                                                                    
                                                                                                    
                                                                                                    
                                                                                                    
                                                                                                    
                                                                                                    
                                                                                                    
                                                                                                    
                           
<?xpacket end="w"?></metadata>
<defs>
    <style>
      .cls-1 {
        fill: #24ceb3;
        fill-rule: evenodd;
      }
    </style>
  </defs>
  <path id="_copy" data-name=" copy" class="cls-1" d="M466.714,857.134a0.548,0.548,0,0,1-.4-0.17l-3.2-3.2a0.56,0.56,0,0,1,0-.8l0.911-.911a0.561,0.561,0,0,1,.8,0l1.884,1.884,4.17-4.169a0.56,0.56,0,0,1,.8,0l0.91,0.91a0.56,0.56,0,0,1,0,.8l-5.482,5.482A0.55,0.55,0,0,1,466.714,857.134Zm7.246-9.871a2.477,2.477,0,0,0-1.817-.754h-8.572A2.574,2.574,0,0,0,461,849.08v8.572a2.576,2.576,0,0,0,2.571,2.571h8.572a2.576,2.576,0,0,0,2.571-2.571V849.08A2.477,2.477,0,0,0,473.96,847.263Z" transform="translate(-461 -846.5)"/>
</svg>
