<svg xmlns="http://www.w3.org/2000/svg" width="12.563" height="12.594" viewBox="0 0 12.563 12.594">
  <metadata><?xpacket begin="﻿" id="W5M0MpCehiHzreSzNTczkc9d"?>
<x:xmpmeta xmlns:x="adobe:ns:meta/" x:xmptk="Adobe XMP Core 5.6-c138 79.159824, 2016/09/14-01:09:01        ">
   <rdf:RDF xmlns:rdf="http://www.w3.org/1999/02/22-rdf-syntax-ns#">
      <rdf:Description rdf:about=""/>
   </rdf:RDF>
</x:xmpmeta>
                                                                                                    
                                                                                                    
                                                                                                    
                                                                                                    
                                                                                                    
                                                                                                    
                                                                                                    
                                                                                                    
                                                                                                    
                                                                                                    
                                                                                                    
                                                                                                    
                                                                                                    
                                                                                                    
                                                                                                    
                                                                                                    
                                                                                                    
                                                                                                    
                                                                                                    
                                                                                                    
                           
<?xpacket end="w"?></metadata>
<defs>
    <style>
      .cls-1 {
        fill: #24ceb3;
        fill-rule: evenodd;
      }
    </style>
  </defs>
  <path id="_" data-name="" class="cls-1" d="M472.009,848.071a1.375,1.375,0,0,1,.42,1.009v7.429A1.432,1.432,0,0,1,471,857.937h-7.429a1.432,1.432,0,0,1-1.428-1.428V849.08a1.432,1.432,0,0,1,1.428-1.428H471A1.374,1.374,0,0,1,472.009,848.071Zm0.808-.808a2.477,2.477,0,0,0-1.817-.754h-7.429A2.574,2.574,0,0,0,461,849.08v7.429a2.574,2.574,0,0,0,2.571,2.571H471a2.574,2.574,0,0,0,2.571-2.571V849.08A2.477,2.477,0,0,0,472.817,847.263Z" transform="translate(-461 -846.5)"/>
</svg>
