<svg xmlns="http://www.w3.org/2000/svg" width="27.843" height="24" viewBox="0 0 27.843 24">
  <metadata><?xpacket begin="﻿" id="W5M0MpCehiHzreSzNTczkc9d"?>
<x:xmpmeta xmlns:x="adobe:ns:meta/" x:xmptk="Adobe XMP Core 5.6-c138 79.159824, 2016/09/14-01:09:01        ">
   <rdf:RDF xmlns:rdf="http://www.w3.org/1999/02/22-rdf-syntax-ns#">
      <rdf:Description rdf:about=""/>
   </rdf:RDF>
</x:xmpmeta>
                                                                                                    
                                                                                                    
                                                                                                    
                                                                                                    
                                                                                                    
                                                                                                    
                                                                                                    
                                                                                                    
                                                                                                    
                                                                                                    
                                                                                                    
                                                                                                    
                                                                                                    
                                                                                                    
                                                                                                    
                                                                                                    
                                                                                                    
                                                                                                    
                                                                                                    
                                                                                                    
                           
<?xpacket end="w"?></metadata>
<defs>
    <style>
      .cls-1 {
        fill: #fff;
        fill-rule: evenodd;
      }
    </style>
  </defs>
  <path id="_" data-name=",," class="cls-1" d="M561.269,4175.04a13.653,13.653,0,0,0,2.291-5.38,5.551,5.551,0,0,1-4.473-1.94,6.358,6.358,0,0,1-1.419-4.2,6.1,6.1,0,0,1,1.419-4.19,5.694,5.694,0,0,1,4.473-1.83,5.567,5.567,0,0,1,4.364,1.83,6.089,6.089,0,0,1,1.528,4.19,17.7,17.7,0,0,1-3.491,10.77,29.687,29.687,0,0,1-8.074,7.21l-1.31-1.4a25.52,25.52,0,0,0,4.692-5.06h0Zm14.97,0a13.653,13.653,0,0,0,2.291-5.38,5.552,5.552,0,0,1-4.474-1.94,6.357,6.357,0,0,1-1.418-4.2,6.1,6.1,0,0,1,1.418-4.19,5.7,5.7,0,0,1,4.474-1.83,5.568,5.568,0,0,1,4.364,1.83,6.089,6.089,0,0,1,1.528,4.19,17.7,17.7,0,0,1-3.492,10.77,29.687,29.687,0,0,1-8.074,7.21l-1.309-1.4a25.579,25.579,0,0,0,4.692-5.06h0Z" transform="translate(-556.563 -4157.5)"/>
</svg>
