<?xml version="1.0" encoding="utf-8"?>
<!-- Generator: Adobe Illustrator 22.0.1, SVG Export Plug-In . SVG Version: 6.00 Build 0)  -->
<svg version="1.1"
	 id="svg2" xmlns:cc="http://creativecommons.org/ns#" xmlns:dc="http://purl.org/dc/elements/1.1/" xmlns:rdf="http://www.w3.org/1999/02/22-rdf-syntax-ns#" xmlns:svg="http://www.w3.org/2000/svg"
	 xmlns="http://www.w3.org/2000/svg" xmlns:xlink="http://www.w3.org/1999/xlink" x="0px" y="0px" viewBox="0 0 817.6 817.6"
	 style="enable-background:new 0 0 817.6 817.6;" xml:space="preserve">
<style type="text/css">
	.st0{opacity:0.12;fill:#0FA28B;enable-background:new    ;}
	.st1{opacity:0.25;}
	.st2{fill:#0FA28B;}
</style>
<circle id="path4173" class="st0" cx="409.1" cy="408.9" r="408.8"/>
<g>
	<g class="st1">
		<path class="st2" d="M636.6,344.7L370.5,209c-16.8-8.5-37.5-1.8-46.1,15l-18.8,36.8l-24.8,48.6h120.1l-84.6-43.1l18.8-36.8
			c5.5-10.8,18.8-15.2,29.7-9.6l266.1,135.6c10.8,5.5,15.2,18.8,9.6,29.7L621.7,422l-81-41.3v105l38.6,19.6l-18.8,36.8
			c-4.8,9.3-15.3,13.8-25,11.4c-1.9,3.8-4.5,7.3-7.4,10.4c16.2,6.5,35.2-0.4,43.3-16.2l18.8-36.8l42.5-83.3l18.8-36.8
			C660.1,374,653.4,353.2,636.6,344.7z"/>
	</g>
	<g>
		<g>
			<polygon class="st2" points="356.8,502.2 367.9,502.2 367.9,488.3 356.8,488.3 			"/>
		</g>
		<g>
			<rect x="380" y="488.3" class="st2" width="11.1" height="14"/>
		</g>
		<g>
			<rect x="403.2" y="488.3" class="st2" width="11.1" height="14"/>
		</g>
		<g>
			<rect x="438" y="488.3" class="st2" width="11.1" height="14"/>
		</g>
		<g>
			<rect x="275.6" y="488.3" class="st2" width="11.1" height="14"/>
		</g>
		<g>
			<rect x="298.8" y="488.3" class="st2" width="11.1" height="14"/>
		</g>
		<g>
			<rect x="322" y="488.3" class="st2" width="11.1" height="14"/>
		</g>
		<g>
			<rect x="484.4" y="488.3" class="st2" width="11.1" height="14"/>
		</g>
		<g>
			<rect x="217.6" y="488.3" class="st2" width="11.1" height="14"/>
		</g>
		<g>
			<rect x="194.4" y="488.3" class="st2" width="11.1" height="14"/>
		</g>
		<g>
			<g>
				<path class="st2" d="M495.9,321.1H197.2c-18.8,0-34.3,15.4-34.3,34.3v176.3c0,18.8,15.4,34.3,34.3,34.3h298.7
					c18.8,0,34.3-15.4,34.3-34.3V355.3C530.1,336.5,514.7,321.1,495.9,321.1z M200.2,380.7h52.9c4.5,0,8.2,3.3,8.9,7.7h-46.1h-24.6
					C191.9,384,195.7,380.7,200.2,380.7z M191.2,390.9h24.7c0.7,0,1.3,0.6,1.3,1.3v5.8c0,0.7-0.6,1.3-1.3,1.3h-24.7V390.9z
					 M191.2,401.9h24.7c0.7,0,1.3,0.5,1.3,1.2v5.8c0,0.7-0.6,1.3-1.3,1.3h-24.7V401.9z M191.2,412.9h24.7c0.7,0,1.3,0.5,1.3,1.2v5.8
					c0,0.7-0.6,1.3-1.3,1.3h-24.7V412.9z M208.7,501c0,1.9-0.3,3.3-0.7,4.1c-0.5,0.7-1.4,1.1-2.8,1.1h-10.5c-1.4,0-2.3-0.4-2.8-1.1
					s-0.7-2-0.7-4.1v-11.4c0-1.9,0.3-3.3,0.7-4.1c0.5-0.7,1.4-1.1,2.8-1.1h10.5c1.4,0,2.3,0.4,2.8,1.1s0.7,2,0.7,4.1V501z
					 M231.9,501c0,1.9-0.3,3.3-0.7,4.1c-0.5,0.7-1.4,1.1-2.8,1.1h-10.5c-1.4,0-2.3-0.4-2.8-1.1s-0.7-2-0.7-4.1v-11.4
					c0-1.9,0.3-3.3,0.7-4.1c0.5-0.7,1.4-1.1,2.8-1.1h10.5c1.4,0,2.3,0.4,2.8,1.1s0.7,2,0.7,4.1V501z M255.1,501
					c0,1.9-0.3,3.3-0.7,4.1c-0.5,0.7-1.4,1.1-2.8,1.1h-10.5c-1.4,0-2.3-0.4-2.8-1.1s-0.7-2-0.7-4.1v-11.4c0-1.9,0.3-3.3,0.7-4.1
					c0.5-0.7,1.4-1.1,2.8-1.1h10.5c1.4,0,2.3,0.4,2.8,1.1s0.7,2,0.7,4.1V501z M253.1,431.4h-52.9c-4.5,0-8.2-3.3-8.9-7.7h24.6h33.7
					h12.3C261.3,428.1,257.6,431.4,253.1,431.4z M262,421.2h-12.4c-0.7,0-1.3-0.6-1.3-1.3v-5.8c0-0.7,0.6-1.2,1.3-1.2H262V421.2z
					 M262,410.3h-12.4c-0.7,0-1.3-0.6-1.3-1.3v-5.8c0-0.7,0.6-1.2,1.3-1.2H262V410.3z M262,399.3h-12.4c-2.1,0-3.9,1.8-3.9,3.9v5.8
					c0,1,0.4,1.8,1,2.6c-0.6,0.7-1,1.6-1,2.6v5.8c0,0.4,0.1,0.9,0.3,1.3h-26.6c0.2-0.4,0.3-0.8,0.3-1.3v-5.8c0-1-0.4-1.8-1-2.6
					c0.6-0.7,1-1.6,1-2.6v-5.8c0-1-0.4-1.8-1-2.6c0.6-0.7,1-1.6,1-2.6v-5.8c0-0.4-0.1-0.9-0.3-1.3h42.5L262,399.3L262,399.3z
					 M289.9,501c0,1.9-0.3,3.3-0.7,4.1c-0.5,0.7-1.4,1.1-2.8,1.1h-10.5c-1.4,0-2.3-0.4-2.8-1.1s-0.7-2-0.7-4.1v-11.4
					c0-1.9,0.3-3.3,0.7-4.1c0.5-0.7,1.4-1.1,2.8-1.1h10.5c1.4,0,2.3,0.4,2.8,1.1s0.7,2,0.7,4.1V501z M313.1,501
					c0,1.9-0.3,3.3-0.7,4.1c-0.5,0.7-1.4,1.1-2.8,1.1h-10.5c-1.3,0-2.3-0.4-2.8-1.1s-0.7-2-0.7-4.1v-11.4c0-1.9,0.3-3.3,0.7-4.1
					c0.5-0.7,1.4-1.1,2.8-1.1h10.5c1.4,0,2.3,0.4,2.8,1.1s0.7,2,0.7,4.1V501z M336.3,501c0,1.9-0.3,3.3-0.7,4.1
					c-0.5,0.7-1.4,1.1-2.8,1.1h-10.5c-1.4,0-2.3-0.4-2.8-1.1s-0.7-2-0.7-4.1v-11.4c0-1.9,0.3-3.3,0.7-4.1c0.5-0.7,1.4-1.1,2.8-1.1
					h10.5c1.4,0,2.3,0.4,2.8,1.1s0.7,2,0.7,4.1V501z M371.1,501c0,1.9-0.3,3.3-0.7,4.1c-0.5,0.7-1.4,1.1-2.8,1.1h-10.5
					c-1.4,0-2.3-0.4-2.8-1.1s-0.7-2-0.7-4.1v-11.4c0-1.9,0.3-3.3,0.7-4.1c0.5-0.7,1.4-1.1,2.8-1.1h10.5c1.4,0,2.3,0.4,2.8,1.1
					s0.7,2,0.7,4.1V501z M394.3,501c0,1.9-0.3,3.3-0.7,4.1c-0.5,0.7-1.4,1.1-2.8,1.1h-10.5c-1.4,0-2.3-0.4-2.8-1.1s-0.7-2-0.7-4.1
					v-11.4c0-1.9,0.3-3.3,0.7-4.1c0.5-0.7,1.4-1.1,2.8-1.1h10.5c1.4,0,2.3,0.4,2.8,1.1s0.7,2,0.7,4.1V501z M417.6,501
					c0,1.9-0.3,3.3-0.7,4.1c-0.5,0.7-1.4,1.1-2.8,1.1h-10.5c-1.4,0-2.3-0.4-2.8-1.1s-0.7-2-0.7-4.1v-11.4c0-1.9,0.3-3.3,0.7-4.1
					c0.5-0.7,1.4-1.1,2.8-1.1H414c1.4,0,2.3,0.4,2.8,1.1s0.7,2,0.7,4.1V501H417.6z M452.3,501c0,1.9-0.3,3.3-0.7,4.1
					c-0.5,0.7-1.4,1.1-2.8,1.1h-10.5c-1.4,0-2.3-0.4-2.8-1.1s-0.8-2-0.8-4.1v-11.4c0-1.9,0.3-3.3,0.8-4.1s1.4-1.1,2.8-1.1h10.5
					c1.4,0,2.3,0.4,2.8,1.1s0.7,2,0.7,4.1V501z M475.5,501c0,1.9-0.3,3.3-0.7,4.1c-0.5,0.7-1.4,1.1-2.8,1.1h-10.5
					c-1.4,0-2.3-0.4-2.8-1.1s-0.7-2-0.7-4.1v-11.4c0-1.9,0.3-3.3,0.7-4.1c0.5-0.7,1.4-1.1,2.8-1.1H472c1.4,0,2.3,0.4,2.8,1.1
					s0.7,2,0.7,4.1V501z M498.8,501c0,1.9-0.3,3.3-0.7,4.1c-0.5,0.7-1.4,1.1-2.8,1.1h-10.5c-1.4,0-2.3-0.4-2.8-1.1s-0.7-2-0.7-4.1
					v-11.4c0-1.9,0.3-3.3,0.7-4.1c0.5-0.7,1.4-1.1,2.8-1.1h10.5c1.4,0,2.3,0.4,2.8,1.1s0.7,2,0.7,4.1V501z"/>
			</g>
		</g>
		<g>
			<rect x="461.2" y="488.3" class="st2" width="11.1" height="14"/>
		</g>
		<g>
			<rect x="240.8" y="488.3" class="st2" width="11.1" height="14"/>
		</g>
	</g>
</g>
</svg>
