<?xml version="1.0" encoding="utf-8"?>
<!-- Generator: Adobe Illustrator 22.0.1, SVG Export Plug-In . SVG Version: 6.00 Build 0)  -->
<svg version="1.1"
	 id="svg2" xmlns:cc="http://creativecommons.org/ns#" xmlns:dc="http://purl.org/dc/elements/1.1/" xmlns:rdf="http://www.w3.org/1999/02/22-rdf-syntax-ns#" xmlns:svg="http://www.w3.org/2000/svg"
	 xmlns="http://www.w3.org/2000/svg" xmlns:xlink="http://www.w3.org/1999/xlink" x="0px" y="0px" viewBox="0 0 817.6 817.6"
	 style="enable-background:new 0 0 817.6 817.6;" xml:space="preserve">
<style type="text/css">
	.st0{opacity:0.12;fill:#0FA28B;enable-background:new    ;}
	.st1{opacity:0.25;fill:#0FA28B;enable-background:new    ;}
	.st2{fill:#0FA28B;}
</style>
<g id="layer1" transform="translate(329.99998,173.63776)">
	<circle id="path4173" class="st0" cx="78.8" cy="235.2" r="408.8"/>
	<g id="g4233" transform="translate(-27.040954,-4.9315469)">
		<path id="path4228" class="st1" d="M309.5,289.1c-2.9-3.3-6.7-8.2-8.3-10.8c-3.6-5.7-12.9-12.9-21.5-16.7
			c-25.7-11.4-59.2-20-85.8-22.1l-9.7-0.7l-12-8.2c-13.5-9.2-26.8-17.4-41.2-25.1l-9.7-5.2l14.3-0.4l14.3-0.4l0.4-9.3l0.4-9.3
			l-5.5-4.8c-14.7-12.9-40.3-20.1-74.7-20.9L56.2,155l-0.3,13.2l-0.3,13.2l-4.1-0.6l-4-0.5l-0.3-12.8l-0.3-12.7l-8.6,0.4
			c-13,0.6-35.6,3.5-51,6.8c-26.8,5.6-47.4,13.8-58,23.1c-3,2.6-5.8,4.7-6.5,4.7c-2.6,0-29.7,8.3-41.1,12.6c-14,5.3-12.9,5-12.9,3.2
			c0-3.5,6.8-9.4,19-16.5c42.1-24.4,85.6-37.6,142.4-42.9c21.1-2,65.2-0.7,83.5,2.4c29.6,5.1,59.2,18.5,97.9,44.5l16,10.7l11.5,1
			c38.3,3.3,85.4,18.1,96.9,30.4c1.7,1.8,3.8,5.1,4.7,7.4c1,2.4,3.1,4.8,4.9,5.7c3.8,1.8,4.7,4.7,4.9,14.8c0.1,8.3-1.4,14.2-4,15.2
			c-1,0.4-1.7,2.3-1.7,5.2c0,3.1-0.8,5.5-2.6,7.4c-2.4,2.7-3.5,3-15.2,3.5l-12.6,0.6L309.5,289.1L309.5,289.1z"/>
		<path id="path4226" class="st1" d="M224.8,311.4c-1.4-1.8-1.4-1.8,0.5-0.5c1.1,0.8,2,1.8,2,2C227.2,313.9,226.2,313.4,224.8,311.4
			z M-114.2,247.3c2.7-0.3,6.8-0.3,9.2,0c2.3,0.3,0.2,0.5-4.9,0.5S-116.9,247.6-114.2,247.3L-114.2,247.3z M-91.3,247.3
			c2.7-0.3,6.8-0.3,9.2,0s0.2,0.5-4.9,0.5C-92.1,247.8-94.1,247.6-91.3,247.3L-91.3,247.3z M-68.4,247.3c2.7-0.3,6.8-0.3,9.2,0
			s0.2,0.5-4.9,0.5S-71.1,247.6-68.4,247.3L-68.4,247.3z M-45.5,247.3c2.7-0.3,6.8-0.3,9.2,0s0.2,0.5-4.9,0.5
			S-48.2,247.6-45.5,247.3L-45.5,247.3z M-22.7,247.3c2.7-0.3,6.8-0.3,9.2,0s0.2,0.5-4.9,0.5C-23.4,247.8-25.3,247.6-22.7,247.3
			L-22.7,247.3z M10,247.5c0.4-0.4,1.4-0.5,2.2-0.1c0.9,0.4,0.6,0.6-0.6,0.6C10.3,248.1,9.6,247.9,10,247.5L10,247.5z M23.1,247.3
			c2.7-0.3,6.8-0.3,9.2,0s0.2,0.5-4.9,0.5C22.4,247.8,20.4,247.6,23.1,247.3L23.1,247.3z M46.1,247.3c2.7-0.3,6.8-0.3,9.2,0
			c2.3,0.3,0.2,0.5-4.9,0.5S43.4,247.6,46.1,247.3L46.1,247.3z M68.9,247.3c2.7-0.3,6.8-0.3,9.2,0s0.2,0.5-4.9,0.5
			C68.2,247.8,66.2,247.6,68.9,247.3L68.9,247.3z M90.6,247.3c2-0.3,5.4-0.3,7.4,0s0.4,0.5-3.7,0.5
			C90.3,247.8,88.6,247.6,90.6,247.3z M361.1,245.7c0-0.7-2-3.4-4.5-6c-2.5-2.5-5.9-6.8-7.8-9.4c-6.8-10-17.9-16.4-44.4-25.3
			c-19.3-6.6-39.4-10.9-58.9-12.9l-13.1-1.3l-11.5-7.7c-14.9-10-35.9-22.6-45.1-26.9l-7.3-3.4l14.8-0.6l14.8-0.6l0.4-9.3l0.4-9.3
			l-6-4.7c-17.1-13.6-42.9-20.5-75.7-20.5h-13.5v13c0,13.2,0,13.3-2.6,12.6c-1.4-0.4-3.2-0.7-4-0.7c-1,0-1.4-3.3-1.4-12.6v-12.6
			h-8.5c-10.1,0-30.7,2.5-47.5,5.8c-28.1,5.5-51.5,14.4-61.9,23.7c-4.4,4-8.3,5.7-27.5,12.2c-28.1,9.5-36.7,10.1-28.3,1.6
			c6.9-6.8,33.2-20.7,58.1-30.7c52.1-20.8,133-28.7,187.2-18.2c26.2,5.1,59.2,20.7,94.9,45.1l13.8,9.3l10.9,0.7
			c26.2,1.8,58.4,9.8,81.2,20.4c12.9,6,17,9.3,20.2,16.5c1.8,4.3,3.4,6.2,5.5,6.7c3.3,0.8,4,2.2,4.9,10.5c1,9-0.4,16.3-3.7,19.1
			c-2.1,1.8-2.8,3.5-2.8,7.3c0,3.9-0.6,5.4-3.1,7.2c-2.6,2-4.6,2.4-15.4,2.4C364.5,247,361.1,246.7,361.1,245.7L361.1,245.7z
			 M-11.7,202.8c0.4-0.4,1.4-0.5,2.2-0.1c0.9,0.4,0.6,0.6-0.6,0.6C-11.5,203.5-12.1,203.2-11.7,202.8L-11.7,202.8z"/>
		<path id="path4224" class="st2" d="M-110.8,382.1c-10.5-2.7-19.3-9.7-24.6-19.8c-2.7-5.2-3.1-7.2-3.1-16.3
			c0-12.5,2.3-18.4,10.3-26.4s13.9-10.3,26.4-10.3c9,0,11.1,0.4,16.3,3.1c7.8,4.1,13.7,10.3,17.4,18c4.3,9.2,4.2,21.9-0.2,31.1
			c-3.6,7.5-11.4,15.1-18.6,18.3C-93,382.5-104.7,383.6-110.8,382.1L-110.8,382.1z M-88.9,366.9c12.9-8.5,15.4-25.8,5.5-37
			c-10.6-12.1-30.1-11.3-39.1,1.8c-4.5,6.5-5.5,18-1.9,24.9c5,9.8,12.9,14.4,23.9,13.9C-95.4,370-92.5,369.2-88.9,366.9L-88.9,366.9
			z M-108.6,363.3c-8.3-3.1-12.2-8.7-12.2-17.7c0-10,7.1-17.5,17.4-18.2c7.7-0.6,14.1,2.9,17.8,9.4c3.2,5.7,3.3,11,0.3,17.3
			C-89.5,362.6-99.6,366.6-108.6,363.3L-108.6,363.3z M183,382.3c-11.4-3.1-20.5-10.5-25.4-20.5c-4.4-9.1-4.4-21.9-0.2-31.1
			c3.5-7.6,9.8-14.1,17.6-18.1c5-2.6,7.1-3.1,16-3.1c9,0,11.1,0.4,16.8,3.2c22.3,10.9,27.3,41.2,9.8,59.3
			C209.5,380.4,193.8,385.1,183,382.3L183,382.3z M201.4,368.5c5-2.3,11.5-9,13.3-13.7c3.8-9.8-0.4-23.1-9.2-29.3
			c-6.5-4.5-18-5.5-24.9-1.9c-18.9,9.7-19,35.4-0.2,44.8C186.6,371.2,195.2,371.3,201.4,368.5L201.4,368.5z M185.8,363.9
			c-5.3-1.6-8.9-4.7-11.3-9.6c-3.1-6.3-3-11.6,0.3-17.3c3.7-6.6,10.1-10,17.8-9.4c10.5,0.7,17.4,8.2,17.4,18.6
			c0,7.6-3.3,12.8-10.3,16.3C194.4,365,191,365.4,185.8,363.9L185.8,363.9z M-52.7,340c-3.9-18.8-12.9-30.9-28.9-38.4
			c-7.2-3.4-8.6-3.7-19.8-3.7c-11.1,0-12.6,0.3-19.7,3.6c-13,6.2-22.6,17.3-27.2,31.6l-1.4,4.4l-14.1-0.4
			c-16.5-0.5-18.9-1.7-18.9-9.2c0-2.5-0.7-5.9-1.7-7.7c-4.1-7.9-3.5-20,1.2-26.9c2.6-3.9,2.8-5.1,2.9-19.8
			c0.1-16.2,1.2-22.3,5.2-26.6c2.9-3.1,24-15.4,38.8-22.3c30.7-14.4,60.9-23,101.4-28.8c11.3-1.6,21.8-2,50.4-2
			c32.2,0,37.6,0.3,50.1,2.6c29.5,5.3,58.5,18.3,95.8,43c7.6,5,14.5,9.8,15.5,10.6c1.1,0.9,6.8,2,14.3,2.8c21.7,2,41.4,6.1,61,12.5
			c23.1,7.6,37.5,16.4,40.2,24.7c0.7,2.3,2.8,4.7,5.1,6.1c4.3,2.5,5.3,5.6,5.3,16.2c0,7.5-1.7,13.3-4.1,14.2c-1,0.4-1.7,2.3-1.7,5.1
			s-0.9,5.6-2.4,7.5l-2.4,3.1H266h-26.2l-1-5.1c-2.8-17.3-19.4-34.4-37.4-38.6c-26.7-6.2-55.4,12.9-58.9,39.1l-0.7,5.5H45h-97.1
			L-52.7,340L-52.7,340z M-0.9,225l0.3-22.6h-3.1c-6.9,0-29.1,2.4-42.6,4.7c-38.8,6.5-66.5,17.4-75.6,29.8
			c-4.7,6.5-4.6,9.8,0.3,10.4c2,0.2,30,0.4,62.1,0.4l58.4-0.1L-0.9,225L-0.9,225z M102.1,237.7l0.4-9.9l-4.3-3.4
			c-11-8.6-24.7-14.7-40.3-18c-9.8-2-35.4-4.3-43.6-3.8L8,202.9l-0.3,21.6c-0.2,14.3,0.1,21.9,0.9,22.4c0.6,0.4,21.9,0.7,47.3,0.6
			l46.1-0.1L102.1,237.7L102.1,237.7z"/>
	</g>
</g>
</svg>
