<?xml version="1.0" encoding="utf-8"?>
<!-- Generator: Adobe Illustrator 22.0.1, SVG Export Plug-In . SVG Version: 6.00 Build 0)  -->
<svg version="1.1"
	 id="svg2" inkscape:version="0.91 r13725" sodipodi:docname="communication.svg" xmlns:cc="http://creativecommons.org/ns#" xmlns:dc="http://purl.org/dc/elements/1.1/" xmlns:inkscape="http://www.inkscape.org/namespaces/inkscape" xmlns:rdf="http://www.w3.org/1999/02/22-rdf-syntax-ns#" xmlns:sodipodi="http://sodipodi.sourceforge.net/DTD/sodipodi-0.dtd" xmlns:svg="http://www.w3.org/2000/svg"
	 xmlns="http://www.w3.org/2000/svg" xmlns:xlink="http://www.w3.org/1999/xlink" x="0px" y="0px" viewBox="0 0 817.6 817.6"
	 style="enable-background:new 0 0 817.6 817.6;" xml:space="preserve">
<style type="text/css">
	.st0{opacity:0.17;fill:#0FA28B;enable-background:new    ;}
	.st1{fill:#0FA28B;}
	.st2{font-family:'Designosaur';}
	.st3{font-size:93.1858px;}
	.st4{opacity:0.36;fill:#0FA28B;enable-background:new    ;}
</style>
<sodipodi:namedview  bordercolor="#666666" borderopacity="1.0" fit-margin-bottom="0" fit-margin-left="0" fit-margin-right="0" fit-margin-top="0" id="base" inkscape:current-layer="layer1" inkscape:cx="415.48599" inkscape:cy="579.07418" inkscape:document-units="px" inkscape:pageopacity="0.0" inkscape:pageshadow="2" inkscape:window-height="962" inkscape:window-maximized="1" inkscape:window-width="1280" inkscape:window-x="-8" inkscape:window-y="-8" inkscape:zoom="0.5" pagecolor="#ffffff" showgrid="false">
	</sodipodi:namedview>
<g id="layer1" transform="translate(329.99998,173.63776)" inkscape:groupmode="layer" inkscape:label="Layer 1">
	<circle id="path4173" class="st0" cx="78.8" cy="235.2" r="408.8"/>
	<g id="g4268" transform="translate(-26.594975,-7.3729894)">
		<text transform="matrix(1 0 0 1 74.8128 248.3327)" class="st1 st2 st3">24/7</text>
		
			<path id="path3363" inkscape:connector-curvature="0" sodipodi:nodetypes="ssscscsssssssssssssscccssscsssscscccsscssccsscsscsscccscscsscsscccccccssssscccccssssscssscs" class="st4" d="
			M19.5,423.4C9.2,411.7-4.2,391.6-11.3,377c-8.6-17.4-18.5-43.9-16.8-44.9c3.4-2.2,59.8-8.7,61.4-7.2c0.3,0.3,0.6,24.7,0.7,54.1
			l0.1,53.5h-3.2C28,432.6,26.5,431.5,19.5,423.4z M4.7,429.9c-29.9-5.3-63.6-20.7-88.3-40.7c-9.5-7.6-28.2-27-27.1-28
			c1.4-1.3,25-11.5,37-15.9c14.4-5.3,34-11,34.8-10.1c0.4,0.4,2.1,5.2,3.9,10.6c9.3,28.4,23.6,55.5,40.3,76.1
			c3.4,4.2,6.2,7.9,6.2,8.2C11.6,430.7,8.5,430.6,4.7,429.9z M-124,344.1c-11.4-17.6-20.4-38.1-25.3-57.7c-3.1-12.1-5.6-29-5.6-37.1
			v-6h51.4h51.4l0.6,14.1c0.8,16.9,2.9,33.7,6.2,49.8c1.3,6.5,2.8,13.2,3,14.9l0.5,3l-11.4,3.2c-14,3.9-34.3,11.5-50.5,18.7
			c-6.7,3.1-12.6,5.7-13.2,5.9C-117.5,353.2-120.7,349.2-124,344.1L-124,344.1z M-33.8,313.9c-4.5-19.6-8-47.1-8.1-62.5v-8.2h37.7
			h37.7l0.1,5.2c0.1,2.9,0.2,18.8,0.3,35.6l0.2,30.4l-11.9,0.7c-16.9,1-43,4.5-52.2,7.2C-31.5,322.6-32.2,321-33.8,313.9
			L-33.8,313.9z M-154.7,223.1c1.6-29.4,13.2-63.3,30.4-89.9l7.1-10.9l9.5,4.4c19,8.8,45.5,18.5,63.4,23.1l4.1,1.1l-1.9,6.7
			c-4.6,16.4-9.8,52.7-9.8,68.6v7h-51.7h-51.7L-154.7,223.1z M-41.9,226.1c0-15.5,3.5-41.2,8.5-62.3l2.5-10.5l8.6,1.7
			c11.2,2.3,30.6,4.7,44.6,5.5l11.2,0.7l0.1,6.3c0,3.4,0.1,16.3,0.1,28.6s0,25.6-0.1,29.7l-0.1,7.5H-4.3H-42L-41.9,226.1
			L-41.9,226.1z M15.6,149.9c-11.9-0.9-19.3-1.8-33.9-4.5c-7.3-1.3-8.7-1.9-8.7-3.4c0-5.8,15-39.1,25.2-55.8
			C9.1,68.2,28.5,43.9,32,43.9c1.6,0,1.5-3.3,1.5,53.1c0,23.1,0,44.8-0.1,48.1l-0.1,5.9l-3.3-0.1C28.4,150.8,21.8,150.4,15.6,149.9
			L15.6,149.9z M-50.9,137.7c-19.7-5.7-59.5-21.5-59.5-23.5c0-0.4,5.1-5.8,11.2-12c20.5-20.6,44-35.9,70.4-45.8
			c10.1-3.8,29.3-8.8,38.3-10l5.4-0.8L13,48C-2.5,67.8-12.9,83.5-20.9,99.8c-4.3,8.9-13.2,30.5-15.1,37.1c-0.7,2.3-1.7,4.2-2.3,4.2
			C-39,141-44.6,139.5-50.9,137.7z"/>
		<path id="path3361" inkscape:connector-curvature="0" class="st1" d="M50.6,450c-1.7-0.8-4.1-2.9-5.2-4.7c-2-3.3-2-4.5-2-207.5
			V36.6l1.3-5.4c0.7-1.1,1.6-2.1,2.8-2.8l6.5-2.5h111.9c125.1,0,118.1-0.3,122.2,5.6c1.8,2.7,1.9,8.2,2.1,205.5
			c0.2,191.6,0.2,203-1.5,206.2c-1,1.9-3.3,4.5-5.1,5.7l-3.3,2.3H167.1C72,451.4,53.3,451.1,50.6,450L50.6,450z M179.8,432.4
			c5.2-2.7,11.2-8.4,13.7-13.3c6.2-12,2.2-28.8-8.8-37.1c-12.6-9.7-29.4-8-40.1,3.7c-6.2,6.8-8.4,13.1-7.7,22.1
			c0.9,12.5,8.2,22,20.5,26.6C162.9,436.4,173.8,435.5,179.8,432.4z M158.9,422.2c-7.2-3.8-10.4-9.2-10.4-16.8
			c0-16.2,19.3-24,30.9-12.5c8.1,8.1,6.8,21.3-2.8,27.8C172.1,423.8,163.2,424.6,158.9,422.2z M271.8,357c2.4-1.8,3.9-4.1,4.7-6.6
			c0.7-2.6,1-47.7,0.8-140.3C277,74,277,73.7,275,70.9c-1.1-1.5-3.5-3.5-5.4-4.5c-3.2-1.6-10.1-1.7-102.9-1.7
			c-110.2,0-104.3-0.4-108.3,6.4c-1.8,3-1.8,7.8-1.9,141.4c0,128.8,0.1,138.5,1.7,140.8c2.3,3.3,4.2,4.7,7.7,5.8
			c1.8,0.6,43.2,0.9,102.7,0.8l99.7-0.2L271.8,357L271.8,357z M217.4,48.7c2.1-3.1,1.9-4.4-0.9-7.3l-2.4-2.4h-47.4
			c-52.8,0-51.8-0.1-51.8,6.3c0,1.8,0.6,3.7,1.1,4.4c0.9,0.9,13.5,1.1,50.5,1.1h49.3L217.4,48.7z"/>
	</g>
</g>
</svg>
