<?xml version="1.0" encoding="utf-8"?>
<!-- Generator: Adobe Illustrator 22.0.1, SVG Export Plug-In . SVG Version: 6.00 Build 0)  -->
<svg version="1.1"
	 id="svg2" xmlns:cc="http://creativecommons.org/ns#" xmlns:dc="http://purl.org/dc/elements/1.1/" xmlns:rdf="http://www.w3.org/1999/02/22-rdf-syntax-ns#" xmlns:svg="http://www.w3.org/2000/svg"
	 xmlns="http://www.w3.org/2000/svg" xmlns:xlink="http://www.w3.org/1999/xlink" x="0px" y="0px" viewBox="0 0 817.6 817.6"
	 style="enable-background:new 0 0 817.6 817.6;" xml:space="preserve">
<style type="text/css">
	.st0{opacity:0.12;fill:#0FA28B;enable-background:new    ;}
	.st1{opacity:0.34;}
	.st2{fill:#0FA28B;}
	.st3{fill:#E2F4F1;}
</style>
<circle id="path4173" class="st0" cx="410" cy="409.3" r="408.8"/>
<g class="st1">
	<g>
		<path class="st2" d="M408.6,611.1c-80,0-145.1-68.6-145.1-153.1c0-57.1,39.5-106.7,81.4-159.1c19.9-25,40.6-50.9,58.3-79
			c1.2-1.8,3.2-3,5.4-3s4.2,1.1,5.4,3c17.7,28.2,38.4,54,58.3,79c41.9,52.5,81.4,102,81.4,159.1
			C553.6,542.4,488.5,611.1,408.6,611.1z"/>
		<path class="st2" d="M408.6,223.2c55.5,88,138.7,153.7,138.7,234.7s-62.1,146.7-138.7,146.7S269.9,539,269.9,458
			S353.1,311.3,408.6,223.2 M408.6,210.4c-4.4,0-8.5,2.3-10.8,5.9c-17.5,27.9-38,53.6-57.9,78.4c-42.7,53.5-82.8,103.9-82.8,163.2
			c0,42.5,15.6,82.4,44.1,112.5c13.9,14.7,30.1,26.2,48.2,34.4c18.7,8.4,38.7,12.6,59.2,12.6c20.6,0,40.5-4.3,59.2-12.6
			c18.1-8,34.3-19.7,48.2-34.4c28.4-30.1,44.1-70,44.1-112.5c0-59.3-40.2-109.8-82.8-163.2c-19.8-24.9-40.3-50.6-57.9-78.4
			C417.1,212.7,412.9,210.4,408.6,210.4L408.6,210.4z"/>
	</g>
</g>
<g>
	<g>
		<path class="st2" d="M403.1,592.8c-80,0-145.1-68.6-145.1-153.1c0-57.1,39.5-106.7,81.4-159.1c19.9-25,40.6-50.9,58.3-79
			c1.2-1.8,3.2-3,5.4-3s4.2,1.1,5.4,3c17.7,28.2,38.4,54,58.3,79c41.9,52.5,81.4,102,81.4,159.1C548.1,524.1,483,592.8,403.1,592.8z
			"/>
		<path class="st3" d="M403.1,204.9c55.5,88,138.7,153.7,138.7,234.7s-62.1,146.7-138.7,146.7s-138.7-65.6-138.7-146.6
			S347.6,293,403.1,204.9 M403.1,192.1c-4.4,0-8.5,2.3-10.8,5.9c-17.5,27.9-38,53.6-57.9,78.4c-42.7,53.5-82.8,103.9-82.8,163.2
			c0,42.5,15.6,82.4,44.1,112.5c13.9,14.7,30.1,26.2,48.2,34.4c18.7,8.4,38.7,12.6,59.2,12.6c20.6,0,40.5-4.3,59.2-12.6
			c18.1-8,34.3-19.7,48.2-34.4c28.4-30.1,44.1-70,44.1-112.5c0-59.3-40.2-109.8-82.8-163.2c-19.8-24.9-40.3-50.6-57.9-78.4
			C411.6,194.4,407.5,192.1,403.1,192.1L403.1,192.1z"/>
	</g>
</g>
</svg>
