<?xml version="1.0" encoding="utf-8"?>
<!-- Generator: Adobe Illustrator 22.0.1, SVG Export Plug-In . SVG Version: 6.00 Build 0)  -->
<svg version="1.1"
	 id="svg2" xmlns:cc="http://creativecommons.org/ns#" xmlns:dc="http://purl.org/dc/elements/1.1/" xmlns:rdf="http://www.w3.org/1999/02/22-rdf-syntax-ns#" xmlns:svg="http://www.w3.org/2000/svg"
	 xmlns="http://www.w3.org/2000/svg" xmlns:xlink="http://www.w3.org/1999/xlink" x="0px" y="0px" viewBox="0 0 817.6 817.6"
	 style="enable-background:new 0 0 817.6 817.6;" xml:space="preserve">
<style type="text/css">
	.st0{opacity:0.12;fill:#0FA28B;enable-background:new    ;}
	.st1{opacity:0.25;}
	.st2{fill:#0FA28B;}
	.st3{fill:#0FA28B;stroke:#E2F4F1;stroke-width:14;stroke-linecap:round;stroke-linejoin:round;stroke-miterlimit:10;}
</style>
<circle id="path4173" class="st0" cx="410" cy="409.3" r="408.8"/>
<g class="st1">
	<g>
		<path class="st2" d="M217.2,383.6c-7.3,0-14.7-3.8-19.7-10c-5-6.3-6.9-13.9-5.4-21c0.9-5,3.8-9.8,8.7-14.1
			c25.3-24.2,54.7-43.8,87.5-58.2c32.7-14.3,67.1-22.8,102.1-25.1c6.8-0.5,13.9-0.8,20.9-0.8c79.3,0,156.7,31.6,212.5,86.6
			c4.3,4.5,6.6,10.6,6.4,17.2c-0.3,6.7-3.1,13-7.8,17.3c-4.3,5-10.9,7.9-18,7.9c-6.9,0-13.4-2.7-17.7-7.5
			C540,331,476.1,305.2,411.6,305.2c-5.9,0-11.8,0.2-17.7,0.7c-57.7,3.8-115.2,29-157.6,69.3c-5.2,5.2-10.7,8.1-16.5,8.4
			C218.8,383.5,218,383.6,217.2,383.6z"/>
		<path class="st2" d="M411.1,257.7c77.6,0,154.8,31.1,210.1,85.6c7.9,8.1,6.8,22.3-1.4,29.7c-3.8,4.6-9.7,6.8-15.6,6.8
			c-5.7,0-11.4-2.1-15.3-6.5c-47.1-45.4-112.1-71.7-177.5-71.7c-6,0-11.9,0.2-17.9,0.7c-59.3,3.8-116.7,29.3-159.7,70.2
			c-3.8,3.9-8.7,7.1-14.3,7.4c-0.8,0.1-1.4,0.1-2.2,0.1c-13.2,0-24.8-13.9-21.8-26.9c0.9-5,4-9,7.7-12.3
			c50.3-48.2,118-77.8,187.5-82.5C397.3,257.9,404.2,257.7,411.1,257.7 M411.1,251v6.7V251c-7,0-14.1,0.3-21.1,0.8
			c-35.4,2.3-70.1,10.9-103.1,25.4c-33.1,14.5-62.8,34.4-88.4,58.8c-5.4,4.9-8.7,10.2-9.7,16c-1.7,8.1,0.5,16.7,6.1,23.7
			c5.7,7,14,11.3,22.4,11.3c1,0,1.8-0.1,2.8-0.2c6.5-0.4,12.8-3.6,18.5-9.3c41.9-39.7,98.5-64.7,155.4-68.3c0,0,0,0,0.1,0
			c5.8-0.4,11.6-0.7,17.4-0.7c63.7,0,126.7,25.4,172.7,69.7c5,5.4,12.3,8.6,20.1,8.6c8,0,15.4-3.3,20.4-8.9c5.3-4.9,8.5-12,8.8-19.5
			s-2.3-14.5-7.3-19.6l-0.1-0.1c-27.6-27.3-61.9-49.6-98.9-64.7C490.3,258.9,450.1,251,411.1,251L411.1,251z"/>
	</g>
	<g>
		<path class="st2" d="M273.6,443.7c-7.4,0-14.4-3.2-18.8-8.6c-4.4-4.3-7-10.5-7.2-16.9s2.1-12.4,6.3-16.8
			c35.8-35.9,83.4-58.4,134.2-63.6c7.5-0.8,15.2-1.3,22.8-1.3c59,0,116.2,23.8,157.2,65.1c0,0.1,0.1,0.1,0.1,0.2
			c8.3,9.4,7.5,24.6-1.7,33.4c-4.4,5.2-11.3,8.4-18.6,8.4c-6.3,0-12.1-2.3-16.3-6.4c-28.8-28.4-68-46.3-107.8-49.3
			c-4.4-0.4-8.9-0.6-13.4-0.6c-44.6,0-88.4,18-120.2,49.5C286.2,441.2,280.1,443.7,273.6,443.7z"/>
		<path class="st2" d="M410.9,339.9c57.3,0,114.4,23.3,154.8,64.2c7.1,8.2,6.3,21.5-1.7,28.8c-3.9,4.8-10,7.3-16.1,7.3
			c-5.1,0-10.2-1.7-14-5.5c-29.3-28.9-68.8-47.1-109.9-50.2c-4.5-0.4-9-0.6-13.6-0.6c-45.3,0-90.4,18.5-122.6,50.4
			c-3.8,4-9.1,6-14.4,6c-6.2,0-12.4-2.6-16.4-7.5c-7.9-7.5-8.6-21.2-1-29.2c35.1-35.2,82.7-57.5,132.1-62.6
			C395.9,340.3,403.4,339.9,410.9,339.9 M410.9,333.2v6.7V333.2c-7.8,0-15.6,0.4-23.2,1.3c-25.4,2.6-50.1,9.5-73.6,20.6
			c-23.6,11.2-44.6,25.9-62.6,44l-0.1,0.1c-4.8,5-7.4,11.8-7.2,19.2c0.2,7.3,3.1,14.2,8.1,19.1c5.1,6.1,13,9.6,21.3,9.6
			c7.4,0,14.4-2.9,19.2-8c31.1-30.8,74-48.4,117.8-48.4c4.3,0,8.8,0.2,13.1,0.6c0,0,0,0,0.1,0c39,2.9,77.5,20.4,105.6,48.3
			c4.9,4.8,11.5,7.4,18.7,7.4c8.2,0,16-3.5,21-9.4c10.4-9.9,11.3-27.1,1.8-37.9c-0.1-0.1-0.2-0.2-0.3-0.3
			c-20.4-20.6-45.7-37.5-73.3-48.9C469.9,339.1,440,333.2,410.9,333.2L410.9,333.2z"/>
	</g>
	<g>
		<path class="st2" d="M329.6,504.1c-0.9,0-1.6,0-2.5-0.1c-9.1-0.7-17.6-7.1-21.6-16.5c-3.7-8.8-2.5-17.8,3.2-24.4l0.1-0.1
			c22.4-24.2,54.7-40.1,88.8-43.5c4.3-0.4,8.8-0.7,13.1-0.7c37.4,0,75.1,16,100.9,42.7c4.2,4.4,6.4,10.5,6.3,17
			c-0.2,6.6-3,12.8-7.6,17.1c-4.4,5.2-11.1,8.2-18.3,8.2c-6.5,0-12.7-2.5-17-7c-15.5-16-36.9-25.8-58.8-26.9c-2-0.1-3.9-0.2-5.9-0.2
			c-23,0-45.7,9.4-62.4,25.9C343.1,500.9,336.4,504.1,329.6,504.1z"/>
		<path class="st2" d="M410.7,422.1c36.7,0,73,15.3,98.4,41.7c7.8,8.1,6.8,21.9-1.3,29.4c-3.9,4.7-9.8,7.1-15.8,7.1
			c-5.4,0-10.8-1.9-14.5-6c-16-16.5-38.1-26.7-61.1-28c-2-0.1-4-0.2-6.1-0.2c-24.1,0-47.7,10-64.8,26.9c-4,4.5-9.9,7.5-16.1,7.5
			c-0.7,0-1.4,0-2.2-0.1c-16.1-1.2-27.1-22.5-16.2-35.4c22.3-24.2,54-39.2,86.7-42.4C402.2,422.3,406.5,422.1,410.7,422.1
			 M410.7,415.3v6.7V415.3c-4.5,0-9,0.2-13.5,0.7c-34.8,3.5-67.9,19.7-90.9,44.5c-0.1,0.1-0.1,0.1-0.2,0.2c-6.4,7.6-7.9,18-3.8,27.9
			c4.4,10.5,14,17.8,24.3,18.6c1,0.1,1.8,0.2,2.8,0.2c7.8,0,15.4-3.5,20.9-9.6c16-15.8,37.8-24.8,59.8-24.8c1.8,0,3.8,0.1,5.6,0.2
			h0.1c21,1.2,41.7,10.6,56.6,26c4.9,5.1,11.9,8,19.4,8c8.2,0,15.7-3.4,20.7-9.2c5.2-4.9,8.3-11.9,8.5-19.3s-2.3-14.3-7.2-19.4
			c-13.1-13.6-29.4-24.7-47.2-32.3C449,419.3,429.7,415.3,410.7,415.3L410.7,415.3z"/>
	</g>
	<g>
		<path class="st2" d="M409.7,596.5c-24.6,0-47.1-20.7-49.4-45.2c-1.7-12.6,2.1-25.9,10.4-36.6c8.4-10.8,20.4-17.7,33-19.2
			c2.4-0.4,4.9-0.6,7.4-0.6c12.3,0,24.8,5.1,34.4,14c9.8,9.1,15.4,21.1,15.9,33.6c1.2,13.2-3.7,26.7-13.2,37.2
			c-9.6,10.6-22.8,16.6-36.1,16.6c0,0-0.6,0-0.9,0C410.7,596.5,410.2,596.5,409.7,596.5z"/>
		<path class="st2" d="M411.1,498.3c23.9,0,46.1,20.2,46.9,44.5c2.4,25.8-20.1,50.3-46,50.3c-0.3,0-0.6,0-0.9,0c-0.5,0-1,0-1.4,0
			c-23,0-44-19.2-46-42.1c-3.4-24.6,15.9-49.3,40.5-52.1C406.6,498.5,408.9,498.3,411.1,498.3 M411.2,491.6v6.7V491.6
			C411.2,491.6,411.1,491.6,411.2,491.6c-2.6,0-5.3,0.2-7.9,0.7c-13.5,1.6-26.3,9-35.2,20.5c-8.9,11.4-12.9,25.6-11.1,39.1
			c1.2,12.7,7.3,24.7,17.3,33.9s22.6,14.2,35.4,14.2c0.5,0,1,0,1.4,0c0.3,0,0.6,0,0.9,0c14.2,0,28.3-6.4,38.6-17.8
			c10.2-11.2,15.3-25.7,14-39.7c-0.5-13.4-6.4-26.1-16.9-35.9C437.6,497,424.3,491.6,411.2,491.6L411.2,491.6z"/>
	</g>
</g>
<g>
	<path class="st3" d="M383.5,239.2c84.3-6.1,170.6,25.5,230.7,84.9c7.9,8.1,6.8,22.3-1.4,29.7c-7.6,9-22.9,9.1-30.9,0.4
		c-51.5-49.6-124.1-76.3-195.5-71c-59.3,3.8-116.7,29.3-159.7,70.2c-3.8,3.9-8.7,7.1-14.3,7.4c-14,1.6-27.1-13.1-24.1-26.8
		c0.9-5,4-9,7.7-12.3C246.3,273.4,313.9,243.8,383.5,239.2z"/>
	<path class="st3" d="M381.3,321.8c64.6-7,131.6,16.7,177.3,62.9c7.1,8.2,6.3,21.5-1.7,28.8c-7.2,8.9-21.8,9.9-30,1.8
		c-29.3-28.9-68.8-47.1-109.9-50.2c-49.8-4.1-100.7,14.7-136.2,49.8c-8.2,8.7-23.4,7.6-30.8-1.5c-7.9-7.5-8.6-21.2-1-29.2
		C284.4,349.2,332,326.9,381.3,321.8L381.3,321.8z"/>
	<path class="st3" d="M391,403.4c40.8-4,82.9,11.5,111.2,41.1c7.8,8.1,6.8,21.9-1.3,29.4c-7.4,8.9-22.3,9.5-30.4,1.2
		c-16-16.5-38.1-26.7-61.1-28c-26.1-1.8-52.3,8.4-70.8,26.7c-4.5,5.1-11.3,8.3-18.2,7.4c-16.1-1.2-27.1-22.5-16.2-35.4
		C326.6,421.7,358.3,406.7,391,403.4L391,403.4z"/>
	<path class="st3" d="M397.2,479.6c26.3-4.4,52.9,17.3,53.8,43.9c2.4,26.1-20.6,50.9-46.9,50.3c-23.6,0.9-45.4-18.8-47.4-42.1
		C353.3,507.1,372.6,482.4,397.2,479.6L397.2,479.6z"/>
</g>
</svg>
