<?xml version="1.0" encoding="utf-8"?>
<!-- Generator: Adobe Illustrator 22.0.1, SVG Export Plug-In . SVG Version: 6.00 Build 0)  -->
<svg version="1.1" id="Layer_1" xmlns="http://www.w3.org/2000/svg" xmlns:xlink="http://www.w3.org/1999/xlink" x="0px" y="0px"
	 viewBox="0 0 181 121" style="enable-background:new 0 0 181 121;" xml:space="preserve">
<style type="text/css">
	.st0{opacity:0.2;fill:#52706C;enable-background:new    ;}
	.st1{fill:#83828E;}
	.st2{fill:#EBF7F5;}
	.st3{fill:#D9E6E8;}
	.st4{fill:#CBD1D1;}
	.st5{fill:#11CAAD;}
	.st6{fill:#FFFFFF;}
</style>
<path id="_3" class="st0" d="M42.5,40.8c-2.6-2.9-6.3-4.7-10.2-4.8c8.6-2.1,13-7.4,13-15.7c0-2.9-0.8-5.7-2.5-8.1
	c-1.8-2.5-4.3-4.5-7.2-5.6c-3.6-1.4-7.4-2.1-11.2-2C18.6,4.5,14,5.3,10.4,7c-3.7,1.7-6.8,4.3-9.2,7.6l10.4,7.3
	c1.1-1.8,2.7-3.3,4.6-4.3c2.2-1,4.7-1.5,7.1-1.4c3,0,5.1,0.6,6.4,1.8c1.3,1.2,2,2.8,1.9,4.5c0.1,2.3-0.9,4.5-2.7,6
	c-1.8,1.5-4.6,2.3-8.6,2.3h-5V42h5.7c7.8,0,11.8,3,11.8,8.9c0,2.9-0.8,5.1-2.5,6.5c-1.7,1.4-4.4,2.1-8.1,2.1
	c-2.4,0.1-4.8-0.4-6.9-1.6c-1.7-1.1-3.2-2.5-4.3-4.3L0.6,60.9c1.8,3.2,4.6,5.8,7.9,7.4c4.2,2.1,8.9,3.1,13.6,2.9
	c7.5,0,13.4-1.6,17.7-4.7c4.3-3.2,6.5-8,6.5-14.6C46.5,47.8,45.1,43.8,42.5,40.8z"/>
<path class="st1" d="M125.8,71.8c0,0-15.6-10.5-28.9-19.1c-0.8-0.5-2.7-1.7-5.1-1.7c-2.5,0-4.4,1.2-5.2,1.7
	c-4,2.5-14.7,9.1-28.9,18.2c-0.8,0.6-2.8,2.4-3.1,5c0,0.4,0,0.9,0,1.2v37.7c0,3.5,2.9,6.3,6.4,6.3h61.4c3.6,0,6.4-2.8,6.4-6.3
	c0-12.3,0-24.6,0-37c0-0.1,0-0.5,0-1C128.7,74.5,127.1,72.9,125.8,71.8z"/>
<rect x="60.8" y="56.7" class="st2" width="61.9" height="62.2"/>
<rect x="69.1" y="71.3" class="st3" width="44.4" height="2.8"/>
<rect x="69.1" y="77" class="st3" width="44.4" height="2.8"/>
<rect x="69.1" y="82.7" class="st3" width="44.4" height="2.8"/>
<rect x="69.1" y="88.4" class="st3" width="44.4" height="2.8"/>
<path class="st4" d="M54.6,79.1V115c0,3.3,2.9,6,6.4,6l61.4,0.1c3.6,0,6.4-2.7,6.4-6C104.1,103,79.4,91,54.6,79.1
	C54.6,79,54.6,79,54.6,79.1z"/>
<path class="st4" d="M128.8,79l0.1,35.9c0,3.3-2.9,6-6.4,6L61,121.1c-3.6,0-6.4-2.7-6.5-6C79.4,103.1,104.1,91.1,128.8,79z"/>
<path class="st3" d="M54.6,115.7c0,3,2.9,5.4,6.4,5.4h61.4c3.6,0,6.4-2.4,6.4-5.4c-16.2-10.5-28.2-18.1-32-20.7
	c-0.7-0.5-2.6-1.7-5.2-1.7c-2.5,0-4.4,1.3-5.2,1.7C82.7,97.5,70.8,105.2,54.6,115.7z"/>
<ellipse class="st5" cx="124.7" cy="31.8" rx="39.8" ry="31.9"/>
<polygon class="st5" points="110.7,58.6 101,77 126.4,60.1 "/>
<g id="g4674_1_" transform="matrix(2.5793615,0,0,2.5793615,263.29926,2346.6413)">
	<path id="path4676_1_" class="st6" d="M-55.7-890.3l-6.4-6.9v-0.2l1.7-2h0.2l4.5,4.7l8.4-8.9h0.2l1.7,2v0.2L-55.7-890.3
		C-55.5-890.1-55.7-890.1-55.7-890.3z"/>
</g>
</svg>
