<?xml version="1.0" encoding="utf-8"?>
<!-- Generator: Adobe Illustrator 22.0.1, SVG Export Plug-In . SVG Version: 6.00 Build 0)  -->
<svg version="1.1" id="Layer_1" xmlns="http://www.w3.org/2000/svg" xmlns:xlink="http://www.w3.org/1999/xlink" x="0px" y="0px"
	 viewBox="0 0 191 119" style="enable-background:new 0 0 191 119;" xml:space="preserve">
<style type="text/css">
	.st0{opacity:0.2;fill:#52706C;enable-background:new    ;}
	.st1{fill:#D9E6E8;}
	.st2{fill:#EBF7F5;}
	.st3{fill:#83828E;}
	.st4{fill:#11CAAD;}
</style>
<path id="_2" class="st0" d="M47,65.9V53.9H18.4c1-0.7,3.5-2.8,7.6-6.3c3.6-3,7-6.3,10.3-9.6c2.6-2.7,4.7-5.7,6.4-9
	c1.6-3.4,2.3-7.1,2.2-10.8c0-5.6-1.9-9.9-5.7-13s-9-4.6-15.6-4.6C19,0.4,14.4,1.2,10.1,3c-3.8,1.9-7.1,4.8-9.3,8.4l10.6,7.4
	c1.2-1.8,2.8-3.4,4.5-4.7c2.1-1.4,4.5-2.1,7-2c2.2-0.1,4.4,0.5,6.2,1.8c1.5,1.1,2.3,2.9,2.3,4.8c0,2.6-0.6,5.1-1.9,7.3
	c-1.5,2.6-3.2,5.1-5.3,7.3c-2.3,2.5-5.4,5.7-9.6,9.6S6,50.7,1,55v10.9H47z"/>
<path class="st1" d="M134.1,119H61.2c-4.8,0-8.8-4-8.8-8.8V8.8c0-4.8,4-8.8,8.8-8.8h73c4.8,0,8.8,4,8.8,8.8v101.5
	C142.9,115,138.9,119,134.1,119z"/>
<path class="st2" d="M77.2,55.9h-9.8c-2,0-3.6-1.6-3.6-3.6v-9.8c0-2,1.6-3.6,3.6-3.6h9.8c2,0,3.6,1.6,3.6,3.6v9.8
	C80.8,54.3,79.2,55.9,77.2,55.9z"/>
<path class="st2" d="M77.2,30.6h-9.8c-2,0-3.6-1.6-3.6-3.6v-9.8c0-2,1.6-3.6,3.6-3.6h9.8c2,0,3.6,1.6,3.6,3.6V27
	C80.8,29,79.2,30.6,77.2,30.6z"/>
<path class="st2" d="M77.2,81.2h-9.8c-2,0-3.6-1.6-3.6-3.6v-9.8c0-2,1.6-3.6,3.6-3.6h9.8c2,0,3.6,1.6,3.6,3.6v9.8
	C80.8,79.6,79.2,81.2,77.2,81.2z"/>
<path class="st2" d="M77.2,106.5h-9.8c-2,0-3.6-1.6-3.6-3.6v-9.8c0-2,1.6-3.6,3.6-3.6h9.8c2,0,3.6,1.6,3.6,3.6v9.8
	C80.8,104.9,79.2,106.5,77.2,106.5z"/>
<rect x="87.8" y="42.5" class="st3" width="43" height="3.3"/>
<rect x="87.8" y="49" class="st3" width="15.9" height="3.3"/>
<rect x="87.8" y="67.8" class="st3" width="43" height="3.3"/>
<rect x="87.8" y="74.3" class="st3" width="15.9" height="3.3"/>
<rect x="87.8" y="93.1" class="st3" width="43" height="3.3"/>
<rect x="87.8" y="99.5" class="st3" width="15.9" height="3.3"/>
<rect x="87.8" y="17.2" class="st3" width="43" height="3.3"/>
<rect x="87.8" y="23.7" class="st3" width="15.9" height="3.3"/>
<g id="g4674" transform="matrix(2.5793615,0,0,2.5793615,263.29926,2346.6413)">
	<path id="path4676" class="st4" d="M-74.9-897.5l-3.2-3.5v-0.1l0.9-1h0.1l2.2,2.4l4.2-4.5h0.1l0.9,1v0.1L-74.9-897.5
		C-74.8-897.5-74.9-897.5-74.9-897.5z"/>
</g>
<g id="g4674_1_" transform="matrix(2.5793615,0,0,2.5793615,263.29926,2346.6413)">
	<path id="path4676_1_" class="st4" d="M-74.9-887.6l-3.2-3.5v-0.1l0.9-1h0.1l2.2,2.4l4.2-4.5h0.1l0.9,1v0.1L-74.9-887.6
		C-74.8-887.5-74.9-887.5-74.9-887.6z"/>
</g>
</svg>
