<?xml version="1.0" encoding="utf-8"?>
<!-- Generator: Adobe Illustrator 22.0.1, SVG Export Plug-In . SVG Version: 6.00 Build 0)  -->
<svg version="1.1" id="Layer_1" xmlns="http://www.w3.org/2000/svg" xmlns:xlink="http://www.w3.org/1999/xlink" x="0px" y="0px"
	 viewBox="0 0 163 121" style="enable-background:new 0 0 163 121;" xml:space="preserve">
<style type="text/css">
	.st0{opacity:0.2;fill:#52706C;enable-background:new    ;}
	.st1{fill:#83828E;}
	.st2{fill:#D9E6E8;}
	.st3{fill:#3B3B42;}
	.st4{fill:#EBF7F5;}
	.st5{fill:#11CAAD;}
</style>
<path id="_1" class="st0" d="M28.6,67.9v-64h-9.9c-0.5,2.5-1.6,4.9-3.2,7c-1.4,1.7-3.3,3-5.4,3.7c-3.3,1-6.7,1.5-10.1,1.6v8.8h15.5
	v42.9H28.6z"/>
<path id="XMLID_15_" class="st1" d="M52,0h60.5c2.8,0,5,2.3,5,5V116c0,2.8-2.3,5-5,5H52c-2.8,0-5-2.3-5-5V5C47,2.3,49.3,0,52,0L52,0
	z M52,15.1v90.8h60.5V15.1H52z"/>
<rect id="XMLID_14_" x="52" y="15.1" class="st2" width="60.5" height="90.8"/>
<path id="XMLID_13_" class="st3" d="M74.7,5h15.1c1.4,0,2.5,1.1,2.5,2.5l0,0c0,1.4-1.1,2.5-2.5,2.5H74.7c-1.4,0-2.5-1.1-2.5-2.5l0,0
	C72.2,6.2,73.3,5,74.7,5z"/>
<path id="XMLID_12_" class="st3" d="M62.1,10.1c1.4,0,2.5-1.1,2.5-2.5S63.5,5,62.1,5s-2.5,1.1-2.5,2.5S60.7,10.1,62.1,10.1z"/>
<path id="XMLID_11_" class="st3" d="M77.3,110.9h10.1c1.4,0,2.5,1.1,2.5,2.5l0,0c0,1.4-1.1,2.5-2.5,2.5H77.3c-1.4,0-2.5-1.1-2.5-2.5
	l0,0C74.7,112.1,75.9,110.9,77.3,110.9z"/>
<g id="XMLID_5_">
	<path id="XMLID_6_" class="st4" d="M80.4,15.1h17.5l-7.4,4.3l0,0l0,0l-5.7,3.3l-11.3,6.6l9.8,17.1l17.1-9.8l5.7-3.3l6.4-3.8v7.6
		l-3.2,1.9l3.2,5.5v13.1l-8.8-15.4l-17.1,9.8l6.6,11.3l3.3,5.7l9.8,17.1l6.2-3.7v7.6l-2.8,1.9l2.9,5v8.8H110l-6.2-10.6l0,0l-1.3-2.3
		l-5.3-9.1l-6.6-11.3l0,0l-17.1,9.8l0,0l0,0l13.6,23.4h-7.6L67.9,85.6l0,0l-3.3-5.7L52,58.1V44.9l18.3,31.8l17.1-9.8l-6.6-11.3
		l-3.3-5.7l-9.8-17.1L52,41.6V34l12.4-7.2L81.5,17L80.4,15.1L80.4,15.1z M110.9,15.1l1.6,2.9v-2.9H110.9L110.9,15.1z M73.6,82.3
		L73.6,82.3L73.6,82.3z"/>
</g>
<path class="st5" d="M78.9,50.8c-4.7,0-8.4,3.8-8.4,8.4c0,2.6,1.4,5.2,3.4,6.7l5,10.1l5-10.1c2.1-1.5,3.4-3.9,3.4-6.7
	C87.3,54.6,83.6,50.8,78.9,50.8z M78.9,62.5c-1.9,0-3.4-1.5-3.4-3.4s1.5-3.4,3.4-3.4s3.4,1.5,3.4,3.4S80.8,62.5,78.9,62.5z"/>
</svg>
