<?xml version="1.0" encoding="utf-8"?>
<!-- Generator: Adobe Illustrator 22.0.1, SVG Export Plug-In . SVG Version: 6.00 Build 0)  -->
<svg version="1.1" id="Layer_1" xmlns="http://www.w3.org/2000/svg" xmlns:xlink="http://www.w3.org/1999/xlink" x="0px" y="0px"
	 viewBox="0 0 186 120" style="enable-background:new 0 0 186 120;" xml:space="preserve">
<style type="text/css">
	.st0{opacity:0.2;fill:#52706C;enable-background:new    ;}
	.st1{fill:#D9E6E8;}
	.st2{fill:#83828E;}
	.st3{fill:#3B3B42;}
	.st4{fill:#EBF7F5;}
	.st5{fill:#11CAAD;}
</style>
<path id="_4" class="st0" d="M52.7,55.3V44.1h-7.9V1.8H31.4L0.1,43.3v12h32.2v10.6h12.5V55.3C44.8,55.3,52.7,55.3,52.7,55.3z
	 M32.3,44.1H12.9L32.3,19V44.1z"/>
<path id="path4396-4" class="st1" d="M160.4,66.2c-0.1-0.1-0.4-0.1-0.7,0c-0.3,0.1-0.2,0.2,0.2,0.2
	C160.3,66.4,160.5,66.3,160.4,66.2L160.4,66.2z M156.7,66.2c-0.1-0.1-0.4-0.1-0.7,0c-0.3,0.1-0.2,0.2,0.2,0.2
	C156.6,66.4,156.8,66.3,156.7,66.2L156.7,66.2z M57.7,66.2c-0.1-0.1-0.4-0.1-0.7,0c-0.3,0.1-0.2,0.2,0.2,0.2
	C57.6,66.4,57.8,66.3,57.7,66.2L57.7,66.2z M54,66.2c-0.1-0.1-0.4-0.1-0.7,0c-0.3,0.1-0.2,0.2,0.2,0.2C53.9,66.4,54.2,66.3,54,66.2
	L54,66.2z M149.8,62.9c-0.7-0.7-1.3-1.3-1.4-1.3s0.4,0.6,1.1,1.3c0.7,0.7,1.3,1.3,1.4,1.3C151,64.2,150.5,63.6,149.8,62.9z M64,62.8
	l1.3-1.4L64,62.8c-1.4,1.1-1.6,1.4-1.4,1.4C62.7,64.2,63.3,63.6,64,62.8z M166.9,62.7c0.6-0.6,1-1.1,0.9-1.1s-0.6,0.5-1.2,1.1
	c-0.6,0.6-1,1.1-0.9,1.1S166.3,63.3,166.9,62.7z M47.9,63.8c0-0.1-0.5-0.6-1.1-1.2s-1.1-1-1.1-0.9s0.5,0.6,1.1,1.2
	S47.9,63.9,47.9,63.8L47.9,63.8z M161.4,60c2.2-1.3,3.2-3.2,3.2-5.7c0-2.4-0.8-4-2.6-5.4c-1.2-0.9-1.7-1-4-1c-2.3,0-2.8,0.1-4,1
	c-1.8,1.4-2.9,3.8-2.7,6C151.9,59.7,157.3,62.5,161.4,60L161.4,60z M58.7,60.1c3.4-2,4.5-6.3,2.3-9.5c-1.4-2-2.6-2.7-5.1-2.8
	c-2.8-0.1-4.4,0.6-5.9,2.8c-2,2.8-1.2,7.2,1.7,9.1C53.7,61.1,56.7,61.2,58.7,60.1L58.7,60.1z M170,57.3c0-0.3,0.8-0.4,2.1-0.5
	l2.1-0.1l-2-0.1c-1.8-0.1-3.1,0.3-2.5,0.9C169.9,57.6,170,57.5,170,57.3z M146.4,57.2c-0.1-0.5-4.9-0.5-39.7-0.5H67.1l39.4,0.1
	c30.9,0.1,39.5,0.2,39.7,0.5C146.5,57.7,146.5,57.6,146.4,57.2L146.4,57.2z M43.5,56.8c-0.1-0.1-1.6-0.2-3.2-0.2l-2.9,0.1l3.2,0.2
	C42.4,57,43.7,56.9,43.5,56.8z M33.7,56.3c-0.2-0.1-0.7-0.1-0.9,0s0,0.2,0.4,0.2C33.7,56.5,34,56.4,33.7,56.3z M26.2,48.2l0.1-4.1
	l1.7-0.6c3.7-1.2,7.9-5.7,6.6-7c-0.3-0.3-1.5-0.6-2.6-0.8l-2.1-0.3l-1.4,1.4c-2.1,2.1-2.6,4.2-2.4,10.5l0.1,5.1L26.2,48.2L26.2,48.2
	z M186.8,47.9c0-0.4-0.1-0.6-0.2-0.5c-0.1,0.1-0.1,0.4,0,0.7C186.7,48.4,186.8,48.3,186.8,47.9z M187.1,43.3c0-1.3-0.1-1.8-0.1-1.2
	c-0.1,0.6-0.1,1.7,0,2.4C187,45.1,187.1,44.6,187.1,43.3L187.1,43.3z M184.8,32.5c-0.2-1.2-0.5-3-0.5-3.9c0-0.9-0.2-2.2-0.4-2.7
	c-0.4-0.9-0.4-1-3.4-0.7c-3.7,0.3-5.7,0.8-5.9,1.5c-0.3,0.8,0.8,3.5,2.3,5.2c1.4,1.7,2.6,2.2,6.1,2.6l2.4,0.3L184.8,32.5L184.8,32.5
	z M44.9,30.3c-0.1-0.1-0.4-0.1-0.7,0c-0.3,0.1-0.2,0.2,0.2,0.2C44.8,30.5,45,30.4,44.9,30.3L44.9,30.3z M51.8,28.8
	c-0.1-0.1-0.4-0.1-0.7,0c-0.3,0.1-0.2,0.2,0.2,0.2C51.7,29,51.9,28.9,51.8,28.8L51.8,28.8z M91.2,25c9.8-0.5,17.9-1,18-1.1
	c0.2-0.2,1.6-11.5,1.5-11.7c-0.2-0.3-9.5,0.3-13.3,0.9c-2,0.3-5,1-6.7,1.6c-2.8,0.9-17.8,8-19,9c-0.4,0.3-0.3,0.6,0.3,1.4
	c0.4,0.6,0.9,1,1,1C73.3,26,81.4,25.5,91.2,25z M135.9,22.7c14.3-0.7,15.4-0.9,15.4-2.4c0-1-0.9-1.6-5.1-3.4
	c-8.1-3.5-12.1-4.3-25.2-4.9l-5.2-0.2v1.8c0,1,0.1,3.6,0.2,5.9l0.2,4.1l3,0C120.8,23.4,128.3,23.1,135.9,22.7L135.9,22.7z
	 M173.4,21.4c-1.3-0.1-3.2-0.1-4.4,0c-1.1,0.1-0.1,0.1,2.3,0.1C173.7,21.5,174.6,21.5,173.4,21.4L173.4,21.4z M165.5,21.1
	c-0.1-0.1-0.4-0.1-0.7,0c-0.3,0.1-0.2,0.2,0.2,0.2C165.4,21.3,165.6,21.2,165.5,21.1L165.5,21.1z M133.2,10.1
	c-0.1-0.1-0.4-0.1-0.7,0c-0.3,0.1-0.2,0.2,0.2,0.2C133.1,10.3,133.4,10.2,133.2,10.1L133.2,10.1z M99.1,10.1c-0.1-0.1-0.4-0.1-0.7,0
	c-0.3,0.1-0.2,0.2,0.2,0.2C99,10.3,99.2,10.2,99.1,10.1L99.1,10.1z M129.7,9.7c-0.2-0.1-0.7-0.1-0.9,0c-0.2,0.1,0,0.2,0.4,0.2
	C129.8,9.9,130,9.8,129.7,9.7z M102.6,9.7c-0.2-0.1-0.7-0.1-0.9,0s0,0.2,0.4,0.2S102.9,9.8,102.6,9.7z M125,9.3
	c-0.4-0.1-1.2-0.1-1.6,0c-0.4,0.1-0.1,0.1,0.8,0.1C125.1,9.5,125.4,9.4,125,9.3z M108.3,9.3c-0.3-0.1-1-0.1-1.5,0
	c-0.4,0.1-0.2,0.2,0.6,0.2C108.3,9.5,108.7,9.4,108.3,9.3z"/>
<path id="path4394-5" class="st2" d="M178,56c3.9-1,6.9-3.3,8.1-6c0.8-1.8,1-8.2,0.5-11.1c-0.7-3.4-1.2-4.3-2.7-4.3
	c-3,0-5.1-0.8-6.7-2.4c-1.6-1.6-2.9-4.5-2.6-5.5c0.3-0.7,2.2-1.2,5.9-1.5c2.9-0.2,2.9-0.2,2.2-1c-1.6-1.8-3.5-2.2-10.8-2.5
	c-8.2-0.3-10.4-0.9-19-4.8c-13.6-6.2-17.4-7-32.8-7.5c-7.8-0.2-17.6,0.2-23.3,1.2c-5.8,0.9-9.7,2.5-23.2,9.3
	c-7.3,3.7-14.2,6.9-15.9,7.5c-1.7,0.5-6.2,1.6-10.1,2.5C40,31.4,35,32.9,32,34.4l-1.8,0.9l2,0.3c1.1,0.2,2.2,0.5,2.5,0.8
	c1.3,1.3-2.9,5.8-6.6,7l-1.7,0.6v4.3c0,4.8,0.2,5.5,2.5,6.6c1.9,1,5.3,1.5,10.4,1.5h4.3v-2.2c0-4.6,2.7-8.9,6.9-10.9
	c2.9-1.4,7-1.4,10,0c4.3,2,6.6,5.5,6.9,10.3l0.1,2.8h39.3h39.3l0.1-2.8c0.2-4.7,2.6-8.3,6.9-10.3c2.7-1.3,7-1.3,9.7-0.1
	c4.2,1.9,6.8,5.8,7.1,10.4l0.2,2.8l3,0C174.7,56.5,176.9,56.2,178,56L178,56z M72.1,25c-0.6-0.8-0.6-1.1-0.3-1.4
	c1.2-1,16.2-8.1,19-9c1.7-0.5,4.7-1.2,6.7-1.6c3.7-0.6,13.1-1.2,13.3-0.9c0.1,0.2-1.3,11.5-1.5,11.7c-0.1,0.1-8.2,0.6-18,1.1
	c-9.8,0.5-18,1-18.1,1C73,26.1,72.5,25.6,72.1,25z M116,19.4c-0.1-2.3-0.2-4.9-0.2-5.9v-1.8l5.2,0.2c13,0.6,17,1.4,25.2,4.9
	c4.2,1.8,5.1,2.4,5.1,3.4c0,1.5-1.1,1.7-15.4,2.4c-7.6,0.4-15.1,0.7-16.7,0.8l-3,0L116,19.4L116,19.4z"/>
<path id="path4392-3" class="st3" d="M160.3,66c2.4-0.5,5-2,6.7-3.9c5.3-6,3.2-15.6-4.2-18.9c-2.7-1.2-7-1.2-9.7,0.1
	c-2.4,1.1-4.7,3.4-5.9,5.7c-0.7,1.5-0.9,2.3-0.8,5.2c0,3.1,0.1,3.7,1,5.4C149.8,64.3,155.4,67.1,160.3,66L160.3,66z M155,60.2
	c-1.7-0.8-2.4-1.7-3.2-3.4c-1.3-3.2,0.1-7,3.2-8.6c1.3-0.7,4.6-0.7,6,0c3.5,1.8,4.7,6.4,2.5,9.8C161.8,60.7,158,61.7,155,60.2
	L155,60.2z M57.7,66c3.7-0.7,6.8-3.1,8.5-6.4c0.8-1.6,1-2.3,1-5.3c0-2.9-0.1-3.8-0.9-5.3c-1.2-2.4-3.3-4.5-5.8-5.7
	c-3-1.4-7.1-1.4-10,0c-7.2,3.5-9.2,12.8-4,18.7C49.1,65.1,53.9,66.8,57.7,66z M52.1,60c-3.9-2.3-4.5-7.4-1.2-10.5
	c5.2-4.9,13.4,0.5,10.8,7.2C60.2,60.5,55.7,62.1,52.1,60z"/>
<path id="path4806-1" class="st4" d="M97.1,92l5.7-42.2L92,43l-12.6,1.7L69.2,51L58.4,80.7l17.1,16.5l13.7-5.7"/>
<path id="path4763-1" class="st5" d="M79.9,74.2c0.3-0.6,3.8-12.2,3.8-12.4c0-0.1-0.3-0.7-0.6-1.3c-0.3-0.6-0.6-1.1-0.6-1.2
	s0.7-0.8,1.6-1.6l1.6-1.5l1.6,1.4c0.8,0.8,1.8,1.6,2,1.8l0.4,0.4l-0.5,0.9c-0.2,0.5-0.5,1-0.5,1.1c0,0.2,3.7,12.4,3.9,12.6
	c0,0.1-2.6,0.1-6.5,0.1h-6.6L79.9,74.2L79.9,74.2z M79.6,62.8c0.1-0.1,0.2-0.2,0.3-0.2c0,0,0,0.1-0.1,0.2c-0.1,0.1-0.2,0.2-0.3,0.2
	C79.4,63,79.4,62.9,79.6,62.8z M92.9,62.7C92.6,62.4,92.7,62.4,92.9,62.7c0.4,0.1,0.4,0.3,0.3,0.3C93.1,63,93,62.9,92.9,62.7
	L92.9,62.7z M81.6,60.9c0.2-0.2,0.3-0.3,0.4-0.3s0,0.1-0.2,0.3c-0.2,0.2-0.3,0.3-0.4,0.3S81.4,61.1,81.6,60.9z M91,61
	C90.7,60.7,90.8,60.7,91,61c0.4,0.1,0.4,0.3,0.3,0.3C91.2,61.3,91.1,61.2,91,61z M79.7,60.9c0.1-0.1,0.2-0.2,0.3-0.2
	c0,0,0,0.1-0.1,0.2c-0.1,0.1-0.2,0.2-0.3,0.2C79.6,61.1,79.6,61,79.7,60.9z M92.7,60.8C92.5,60.5,92.5,60.5,92.7,60.8
	c0.4,0.1,0.4,0.3,0.3,0.3C93,61.1,92.8,61,92.7,60.8L92.7,60.8z M81.6,59.1c0.1-0.1,0.2-0.2,0.3-0.2c0,0,0,0.1-0.1,0.2
	c-0.1,0.1-0.2,0.2-0.3,0.2C81.5,59.4,81.5,59.3,81.6,59.1z M90.8,59.1C90.6,58.8,90.6,58.8,90.8,59.1c0.4,0.1,0.4,0.3,0.3,0.3
	C91.1,59.4,90.9,59.2,90.8,59.1L90.8,59.1z M83.6,57.3C83.8,57.1,84,57,84,57s0,0.1-0.2,0.3c-0.2,0.2-0.3,0.3-0.4,0.3
	S83.5,57.5,83.6,57.3L83.6,57.3z M88.8,57.3l-0.3-0.4L88.8,57.3c0.4,0.2,0.5,0.4,0.4,0.4C89.2,57.7,89,57.5,88.8,57.3L88.8,57.3z
	 M83.5,54.3C83.3,54,83.3,54,83.5,54.3c0.2,0,0.4,0.2,0.4,0.2C83.9,54.6,83.8,54.5,83.5,54.3L83.5,54.3z M81.8,52.7
	C81.6,52.4,81.6,52.4,81.8,52.7c0.2,0,0.4,0.2,0.4,0.2C82.2,53.1,82,53,81.8,52.7z M80.1,51.1C79.8,50.9,79.9,50.9,80.1,51.1
	c0.2,0,0.4,0.2,0.4,0.2C80.4,51.5,80.3,51.4,80.1,51.1z M92.4,51.2c0.1-0.1,0.2-0.2,0.3-0.2s0,0.1-0.1,0.2c-0.1,0.1-0.2,0.2-0.3,0.2
	C92.2,51.4,92.2,51.3,92.4,51.2z M78.3,49.6C78.1,49.3,78.1,49.3,78.3,49.6c0.2,0,0.4,0.2,0.4,0.2C78.7,49.9,78.5,49.9,78.3,49.6z
	 M94.1,49.6c0.1-0.1,0.2-0.2,0.3-0.2s0,0.1-0.1,0.2c-0.1,0.1-0.2,0.2-0.3,0.2S94,49.8,94.1,49.6z M76.6,48
	C76.4,47.7,76.4,47.7,76.6,48c0.2,0,0.4,0.2,0.4,0.2C77,48.4,76.8,48.3,76.6,48z M95.8,48c0.1-0.1,0.2-0.2,0.3-0.2s0,0.1-0.1,0.2
	c-0.1,0.1-0.2,0.2-0.3,0.2C95.7,48.3,95.7,48.2,95.8,48L95.8,48z M96.6,42.9c0-0.8,0-1.2,0.1-0.8c0,0.4,0,1.1,0,1.5
	C96.6,44.1,96.6,43.7,96.6,42.9L96.6,42.9z M76,42.8c0-0.8,0-1.1,0.1-0.7c0,0.4,0,1.1,0,1.5C76,43.9,76,43.6,76,42.8L76,42.8z
	 M73.2,34c0-0.2,0-0.3,0.1-0.2c0,0,0.1,0.2,0,0.3C73.2,34.3,73.2,34.2,73.2,34L73.2,34z M99.3,34c0-0.2,0-0.3,0.1-0.2
	c0,0,0.1,0.2,0,0.3C99.3,34.3,99.3,34.2,99.3,34L99.3,34z M68.9,24.2c0-0.8,0-1,0.1-0.6c0,0.4,0,1,0,1.4
	C68.9,25.3,68.9,24.9,68.9,24.2L68.9,24.2z M103.7,24.1c0-0.7,0-1,0.1-0.6c0,0.3,0,0.9,0,1.3C103.7,25.1,103.7,24.8,103.7,24.1z
	 M102.4,18.6c0-0.3,0-0.4,0.1-0.3c0,0.1,0,0.3,0,0.5S102.4,18.9,102.4,18.6L102.4,18.6z M70.1,18.5c0-0.3,0-0.4,0.1-0.3
	c0,0.1,0,0.3,0,0.5C70.1,18.8,70.1,18.8,70.1,18.5L70.1,18.5z M70.2,15.6c0-0.2,0-0.3,0.1-0.2c0,0.1,0,0.3,0,0.4
	C70.3,15.9,70.2,15.8,70.2,15.6z M102.3,15.6c0-0.2,0-0.3,0.1-0.2c0,0.1,0,0.3,0,0.4C102.3,15.9,102.3,15.8,102.3,15.6z M70.4,13.6
	c0-0.2,0-0.3,0.1-0.2c0,0,0.1,0.2,0,0.3C70.5,13.9,70.4,13.8,70.4,13.6L70.4,13.6z M102.1,13.6c0-0.2,0-0.3,0.1-0.2
	c0,0,0.1,0.2,0,0.3C102.1,13.9,102.1,13.8,102.1,13.6L102.1,13.6z M74.2,4.6c0.1-0.1,0.2-0.2,0.3-0.2c0,0,0,0.1-0.1,0.2
	c-0.1,0.1-0.2,0.2-0.3,0.2C74,4.9,74.1,4.8,74.2,4.6z M85.7,0.2c0.3,0,0.8,0,1.2,0c0.3,0,0.1,0.1-0.5,0.1
	C85.7,0.3,85.4,0.3,85.7,0.2L85.7,0.2z"/>
<path id="path4761-9" class="st3" d="M43.2,74.2c0-1.4,1.8-11.9,2.2-12.6c0.5-1,3.7-2.8,10.2-5.7C59.8,54,65,51.5,68,50
	c3.1-1.5,7.4-4.1,7.7-4.6C75.9,45,76,44.5,76,43v-2l-0.8-1.6c-1-2-1.8-4.3-1.9-5.5c-0.1-1.1-0.4-1.4-1.6-2.1c-0.8-0.4-1-0.6-1.4-1.4
	c-0.8-1.5-1-2.8-1.1-5.5c-0.1-2.3,0-2.5,0.3-2.8c0.5-0.5,0.7-1,0.8-3.2c0.4-7.8,0.8-9.5,3-12.6c1.3-2,2.2-2.7,4.7-3.9
	c3.5-1.7,4.2-1.9,8.5-1.9s5,0.1,8.5,1.9c2.5,1.2,3.2,1.8,4.5,3.6c2.2,3.1,2.6,4.9,3.1,11.7c0.2,3.4,0.3,4,0.9,4.5
	c0.3,0.3,0.4,0.4,0.3,2.8c-0.1,1.8-0.2,2.8-0.5,3.7c-0.6,1.9-1,2.7-2.2,3.2c-1.1,0.5-1.4,0.9-1.5,2.1c-0.2,1.2-0.9,3.3-1.9,5.4
	L96.6,41v2c0,1.6,0,2.1,0.3,2.4c0.8,1.2,11.3,6.6,21.8,11.2c4.4,1.9,8.1,4.1,8.6,5c0.3,0.5,1.8,9.5,2.1,11.8l0.1,1.2h-18.3
	c-10.1,0-18.3,0-18.3-0.1c0-0.1,3.3-12.7,3.7-14c0.1-0.4,0.2-0.8,0.2-0.8s-0.6,0.9-1.3,2c-0.7,1.1-1.3,2-1.4,1.9
	c-0.1,0-1.9-1.7-4.2-3.7s-4.1-3.6-4.2-3.6c-0.1,0-0.8,0.7-1.7,1.4c-1.2,1.1-1.5,1.5-1.4,1.8c0.1,0.3-0.3,0.7-1.9,2.2
	c-1.1,1-2.1,1.8-2.1,1.9s-0.7-0.8-1.4-1.9c-1.2-1.9-1.5-2.3-1.3-1.8c0.1,0.3,3.9,14.5,3.9,14.6c0,0-8.2,0.1-18.3,0.1H43.2V74.2
	L43.2,74.2z M82,58.9c1.8-1.6,3.2-3,3.2-3.1c0-0.2-9.5-8.6-9.6-8.6c-0.3,0.1-2.3,1.4-2.3,1.5c0,0.1,0.5,2,1.1,4.2
	c1.1,4,1.1,4,2.6,6.4c0.8,1.3,1.5,2.5,1.6,2.5C78.8,61.8,80.3,60.5,82,58.9L82,58.9z M95.5,59.3l1.5-2.4l1.1-4
	c0.6-2.2,1.1-4.1,1.1-4.2c0-0.1-1.9-1.4-2.3-1.5c-0.1,0-9.6,8.4-9.6,8.6c0,0.2,6.4,6,6.6,5.9C94,61.7,94.7,60.6,95.5,59.3L95.5,59.3
	z"/>
<polygon id="rect4765-6" class="st1" points="31.8,71.2 106.5,71.2 138.5,71.2 138.5,119.7 71.6,119.7 31.8,119.7 "/>
<polygon id="rect4765-6_1_" class="st4" points="31.8,71.2 99.9,71.2 60.4,119.7 31.8,119.7 "/>
</svg>
