<?xml version="1.0" encoding="utf-8"?>
<!-- Generator: Adobe Illustrator 22.0.1, SVG Export Plug-In . SVG Version: 6.00 Build 0)  -->
<svg version="1.1" id="Layer_1" xmlns="http://www.w3.org/2000/svg" xmlns:xlink="http://www.w3.org/1999/xlink" x="0px" y="0px"
	 viewBox="0 0 274 104" style="enable-background:new 0 0 274 104;" xml:space="preserve">
<style type="text/css">
	.st0{display:none;fill:#0B0C0C;}
	.st1{fill:#FFFFFF;}
	.st2{clip-path:url(#SVGID_2_);fill:#FFFFFF;}
	.st3{clip-path:url(#SVGID_4_);fill:#11CAAD;}
	.st4{display:none;clip-path:url(#SVGID_6_);fill:#329E98;}
	.st5{clip-path:url(#SVGID_8_);}
	.st6{fill:url(#SVGID_9_);}
	.st7{fill:url(#SVGID_10_);}
	.st8{clip-path:url(#SVGID_12_);fill:#FFFFFF;}
	.st9{clip-path:url(#SVGID_14_);fill:#11CAAD;}
	.st10{display:none;clip-path:url(#SVGID_16_);fill:#329E98;}
</style>
<g id="Layer_2_1_">
	<rect y="0" class="st0" width="274" height="104"/>
	<path id="Express_Transfers" class="st1" d="M21.8,82.3l0.9-1.7h-13L0,99.3h12.9l0.9-1.7H2.6l3.7-7h10.1l0.9-1.7H7.1l3.5-6.6
		L21.8,82.3L21.8,82.3z M29.6,99.3L28,92.2l8.7-6.9h-2l-7.1,5.6l-1.3-5.6h-2l1.6,6.9l-9.1,7.2h2l7.5-5.9l1.3,5.9L29.6,99.3
		L29.6,99.3z M48.7,85c-2.6,0.2-5,1.2-6.8,3.1l1.4-2.7h-1.7L31.9,104h1.7l3.9-7.4c0,1.7,1.4,3.1,3.2,3.1c0.2,0,0.3,0,0.4,0
		c3.6,0,8-3.1,10.2-7.4S52.3,85,48.7,85L48.7,85z M41.6,98.1c-2.9,0-3.7-2.4-1.9-5.8c1.5-3.2,4.5-5.4,7.9-5.8c2.8,0,3.7,2.5,1.9,5.8
		C48.1,95.5,45.1,97.6,41.6,98.1z M60.4,88.2l1.5-2.9h-1.7l-7.3,14h1.7l4.1-7.8c1.6-3,4.6-4.8,8-5l0.8-1.5
		C64.8,85.1,62.3,86.2,60.4,88.2z M71.3,98.1c-2.9,0-3.8-2.2-2.6-5.1h11.8c2.5-4.8,1.7-8-2.4-8c-4.6,0.5-8.6,3.2-10.7,7.3
		c-2.2,4.2-0.6,7.4,3.1,7.4c2.4-0.1,4.8-0.8,6.8-2.2l-0.5-1.1C75.2,97.4,73.3,98.1,71.3,98.1L71.3,98.1z M77.3,86.5
		c2.9,0,3.6,2.1,2.3,4.9H69.5C71.2,88.7,74.1,86.8,77.3,86.5L77.3,86.5z M86.9,99.7c2.9,0,5.6-1.6,7.1-4.1c1.3-2.4-0.3-3.3-2.4-4.2
		c-2.3-0.9-3-1.5-2.4-2.7c0.9-1.4,2.6-2.3,4.3-2.2c1.3,0,2.5,0.5,3.5,1.3l1.5-1.3c-1.1-1.1-2.6-1.6-4.2-1.6c-2.8,0-5.4,1.5-6.9,3.9
		c-1,2-0.3,3,2.6,4c1.9,0.7,3,1.3,2.2,2.8c-1,1.5-2.7,2.4-4.6,2.3c-1.5,0-3-0.6-3.9-1.8l-1.5,1.2C83.4,99,85.1,99.7,86.9,99.7z
		 M101.8,99.7c2.9,0,5.6-1.6,7.1-4.1c1.3-2.4-0.3-3.3-2.4-4.2c-2.3-0.9-3-1.5-2.4-2.7c0.9-1.4,2.6-2.3,4.3-2.2
		c1.3,0,2.5,0.5,3.5,1.3l1.5-1.3c-1.1-1.1-2.6-1.6-4.2-1.6c-2.8,0-5.4,1.5-6.9,3.9c-1,2-0.3,3,2.6,4c1.9,0.7,3,1.3,2.2,2.8
		c-1,1.5-2.7,2.4-4.6,2.3c-1.5,0-3-0.6-3.9-1.8l-1.5,1.2C98.3,99,100,99.7,101.8,99.7L101.8,99.7z M127,99.3h1.7l8.9-17h6.4l0.9-1.7
		h-14.6l-0.9,1.7h6.4L127,99.3z M147.8,88.2l1.5-2.9h-1.7l-7.3,14h1.7l4.1-7.8c1.6-3,4.6-4.8,8-5l0.8-1.5
		C152.1,85.1,149.6,86.2,147.8,88.2z M164.8,85c-2,0.1-3.9,0.5-5.6,1.4v1.4c1.5-0.7,3.1-1.1,4.8-1.2c3.1,0,2.9,2.3,1.8,4.3l-0.3,0.6
		c-1.3-0.5-2.8-0.8-4.2-0.8c-3.3,0.1-6.3,1.8-8,4.7c-1.4,2.7-0.2,4.5,2.7,4.5c2.4-0.1,4.6-1,6.5-2.6l-1.2,2.2h1.7l4.5-8.5
		C169.2,87.4,168.5,85,164.8,85z M157,98.1c-2.1,0-3.1-1.2-2.1-3c1.3-2,3.4-3.1,5.8-3.1c1.4,0,2.8,0.2,4.1,0.7l-1.2,2.3
		C161.9,96.9,159.6,98.1,157,98.1L157,98.1z M182.5,85c-2.2,0.1-4.4,1-6,2.6l1.2-2.3H176l-7.3,14h1.7l4.7-8.9
		c1.3-2.3,3.7-3.8,6.4-3.9c2.2,0,2.9,1.7,1.7,4l-4.6,8.8h1.7l4.7-9C186.5,87.2,185.5,85,182.5,85L182.5,85z M190.7,99.7
		c2.9,0,5.6-1.6,7.1-4.1c1.3-2.4-0.3-3.3-2.4-4.2c-2.3-0.9-3-1.5-2.4-2.7c0.9-1.4,2.6-2.3,4.3-2.2c1.3,0,2.5,0.5,3.5,1.3l1.5-1.3
		c-1.1-1.1-2.6-1.6-4.2-1.6c-2.8,0-5.4,1.5-6.9,3.9c-1,2-0.3,3,2.6,4c1.9,0.7,3,1.3,2.2,2.8c-1,1.5-2.7,2.4-4.6,2.3
		c-1.5,0-3-0.6-4-1.8l-1.5,1.2C187.2,99,188.9,99.8,190.7,99.7L190.7,99.7z M212.1,83.4c0.5-1.1,1.5-1.9,2.7-2
		c0.5-0.1,1,0.2,1.3,0.6l1.5-1.2c-0.5-0.6-1.3-0.9-2.1-0.9c-2.2,0.2-4.1,1.6-5.1,3.6l-1,1.9h-2.3l-0.8,1.5h2.3l-6.5,12.5h1.7
		l6.5-12.5h3.6l0.8-1.5h-3.6L212.1,83.4z M218.8,98.1c-2.9,0-3.8-2.2-2.6-5.1H228c2.5-4.8,1.7-8-2.4-8c-4.6,0.5-8.6,3.2-10.7,7.3
		c-2.2,4.2-0.6,7.4,3.1,7.4c2.4-0.1,4.8-0.8,6.8-2.2l-0.5-1.1C222.7,97.4,220.7,98.1,218.8,98.1L218.8,98.1z M224.7,86.5
		c2.9,0,3.6,2.1,2.3,4.9h-10C218.6,88.7,221.5,86.8,224.7,86.5L224.7,86.5z M237.3,88.2l1.5-2.9h-1.7l-7.3,14h1.7l4.1-7.8
		c1.6-3,4.6-4.8,8-5l0.8-1.5C241.6,85.1,239.1,86.2,237.3,88.2L237.3,88.2z M246,99.7c2.9,0,5.6-1.6,7.1-4.1
		c1.3-2.4-0.3-3.3-2.4-4.2c-2.3-0.9-3-1.5-2.4-2.7c0.9-1.4,2.6-2.3,4.3-2.2c1.3,0,2.5,0.5,3.5,1.3l1.5-1.3c-1.1-1.1-2.6-1.6-4.2-1.6
		c-2.8,0-5.4,1.5-6.9,3.9c-1,2-0.3,3,2.6,4c1.9,0.7,3,1.3,2.2,2.8c-1,1.5-2.7,2.4-4.6,2.3c-1.5,0-3-0.6-4-1.8l-1.5,1.2
		C242.5,99,244.2,99.7,246,99.7L246,99.7z"/>
</g>
<g id="Layer_1_1_">
	<g>
		<g>
			<defs>
				<rect id="SVGID_1_" x="22" y="0" width="252" height="62"/>
			</defs>
			<clipPath id="SVGID_2_">
				<use xlink:href="#SVGID_1_"  style="overflow:visible;"/>
			</clipPath>
			<path class="st2" d="M146.6,26.4l-63.8-0.3c-1.3,3.4-2.7,7.2-4.1,10.1h58.7L146.6,26.4z"/>
		</g>
		<g>
			<defs>
				<rect id="SVGID_3_" x="22" y="0" width="252" height="62"/>
			</defs>
			<clipPath id="SVGID_4_">
				<use xlink:href="#SVGID_3_"  style="overflow:visible;"/>
			</clipPath>
			<path class="st3" d="M54.4,26.1l7-15.9h49.5L115.4,0h-66L22,61.8h67.2l4.5-10.2H43l6.8-15.5c19.9,0.5,26.8,0.5,32.9-10.1
				L54.4,26.1z"/>
		</g>
		<g>
			<defs>
				<rect id="SVGID_5_" x="22" y="0" width="252" height="62"/>
			</defs>
			<clipPath id="SVGID_6_">
				<use xlink:href="#SVGID_5_"  style="overflow:visible;"/>
			</clipPath>
			<polygon class="st4" points="22,61.8 89.2,61.8 93.7,51.7 43,51.7 			"/>
		</g>
		<g>
			<defs>
				<rect id="SVGID_7_" x="22" y="0" width="252" height="62"/>
			</defs>
			<clipPath id="SVGID_8_">
				<use xlink:href="#SVGID_7_"  style="overflow:visible;"/>
			</clipPath>
			<g class="st5">
				
					<linearGradient id="SVGID_9_" gradientUnits="userSpaceOnUse" x1="158.9664" y1="99.5393" x2="178.974" y2="81.5244" gradientTransform="matrix(1 0 0 -1 0 105.45)">
					<stop  offset="0" style="stop-color:#6C6C6C"/>
					<stop  offset="0.3778" style="stop-color:#838686"/>
					<stop  offset="0.7383" style="stop-color:#929898"/>
					<stop  offset="1" style="stop-color:#989E9E"/>
				</linearGradient>
				<path class="st6" d="M182.1,0c-14.9,9.9-29.8,19.9-44.7,29.8H158C172.2,19.9,186.3,10,200.5,0H182.1z"/>
				
					<linearGradient id="SVGID_10_" gradientUnits="userSpaceOnUse" x1="146.5352" y1="68.9325" x2="174.4082" y2="43.8355" gradientTransform="matrix(1 0 0 -1 0 105.45)">
					<stop  offset="0" style="stop-color:#6C6C6C"/>
					<stop  offset="0.3778" style="stop-color:#838686"/>
					<stop  offset="0.7383" style="stop-color:#929898"/>
					<stop  offset="1" style="stop-color:#989E9E"/>
				</linearGradient>
				<path class="st7" d="M144.3,39c3.8,7.6,7.6,15.3,11.5,22.9h18.3c-5.4-10.7-10.7-21.4-16.1-32.1C153.5,32.9,148.9,36,144.3,39z"
					/>
			</g>
		</g>
		<g>
			<defs>
				<rect id="SVGID_11_" x="22" y="0" width="252" height="62"/>
			</defs>
			<clipPath id="SVGID_12_">
				<use xlink:href="#SVGID_11_"  style="overflow:visible;"/>
			</clipPath>
			<polyline class="st8" points="158.1,29.9 145.6,38.9 112.4,61.8 92.4,61.8 137.7,30 123.3,0 143.4,0 153.4,21.2 			"/>
		</g>
		<g>
			<defs>
				<rect id="SVGID_13_" x="22" y="0" width="252" height="62"/>
			</defs>
			<clipPath id="SVGID_14_">
				<use xlink:href="#SVGID_13_"  style="overflow:visible;"/>
			</clipPath>
			<polygon class="st9" points="273.6,0 269.1,10.2 240.8,10.2 217.9,61.8 201.4,61.8 224.3,10.2 196,10.2 200.5,0 			"/>
		</g>
		<g>
			<defs>
				<rect id="SVGID_15_" x="22" y="0" width="252" height="62"/>
			</defs>
			<clipPath id="SVGID_16_">
				<use xlink:href="#SVGID_15_"  style="overflow:visible;"/>
			</clipPath>
			<polygon class="st10" points="229.2,0 200.6,0 200.5,0 200.5,0 200.5,0 200.5,0 196,10.2 224.1,10.2 224.6,10.4 			"/>
		</g>
	</g>
</g>
</svg>
